<svg xmlns="http://www.w3.org/2000/svg" viewBox="0 0 233.5 174.88"><defs><style>.cls-1{fill:#1c1c14;}.cls-1,.cls-2,.cls-3,.cls-4,.cls-5{fill-rule:evenodd;}.cls-2{fill:#646461;}.cls-3{fill:#4e4d4a;}.cls-4{fill:#2c2c2b;}.cls-5{fill:#5c5c5c;}</style></defs><title>dRisorsa 1</title><g id="Livello_2" data-name="Livello 2"><g id="svg"><g id="svgg"><path id="path0" class="cls-1" d="M90.07.11a28.43,28.43,0,0,1-4.2.44c-.11-.05-.2,0-.2.1s-.18.15-.42.1-.42,0-.42.06c0,.23-.63.17-.72-.06S84,.66,84,.83s-.15.3-.39.31a8.91,8.91,0,0,0-2.39.47A4.44,4.44,0,0,1,80,1.86c-.07-.05-.14,0-.14,0s-1,.56-1.19.45-.14,0-.14.09-.13.18-.28.18a28.42,28.42,0,0,0-4.87,2.28A30.66,30.66,0,0,0,63,15.5c-.31.56-.61.92-.71.85s-.14,0-.08.07A2.6,2.6,0,0,1,61.63,18a.32.32,0,0,0-.15.25c0,.34-.19.89-.31.81s-.12,0-.11.13a8.1,8.1,0,0,1-.91,2.62c-.09,0-.13.07-.08.15a2.93,2.93,0,0,1-.24,1.1,11.76,11.76,0,0,0-.43,1.73,1.9,1.9,0,0,1-.23.82c-.08,0-.1.2-.05.38s0,.32-.08.32-.12.19-.08.42,0,.42-.08.42-.12.22-.08.5,0,.5-.07.5-.16.49-.18,1.09c0,1.05,0,1.08.34,1a3.55,3.55,0,0,1,.61-.13.51.51,0,0,0,.33-.13,1.75,1.75,0,0,1,.67-.2c.32-.05,1.36-.32,2.32-.6a8.54,8.54,0,0,1,1.86-.41.2.2,0,0,0,.24-.09c0-.1.31-.17.56-.17h.46l.23-2c.13-1.13.24-2.17.24-2.32a.66.66,0,0,1,.13-.4.66.66,0,0,0,0-.52c0-.21,0-.39.07-.39s.13-.15.09-.33,0-.33.1-.33.16-.07.11-.15c-.15-.25.1-1.19.28-1.08s.12,0,.06-.08c-.25-.41,1.31-4.67,2.36-6.44,1.39-2.35,2.79-4.16,3.09-4,.09.05.12,0,.06-.07a10.63,10.63,0,0,1,2.52-2.5c1.52-1.14,4.56-2.66,4.89-2.45.08.05.14,0,.14-.07a4.91,4.91,0,0,1,1.94-.77c.17,0,.79-.18,1.38-.33A3.72,3.72,0,0,1,84.94,4c.12,0,.23,0,.23-.1s.18-.14.41-.1.42,0,.42-.07.21-.14.46-.12a1.91,1.91,0,0,0,.75-.09,1.35,1.35,0,0,1,.7,0c.22.06.45,0,.51-.06a1.42,1.42,0,0,1,1.33,0c.07.11.23.1.47,0,.53-.29,6.86-.25,7,0,0,.09.28.11.5,0a1.48,1.48,0,0,1,.7,0,4.41,4.41,0,0,0,1,.18c.41,0,.77.14.8.23s.16.12.29.07a3.4,3.4,0,0,1,1.19.19c.53.16,1.11.31,1.29.34a19.34,19.34,0,0,1,7,3.75c1.5,1.33,3.21,4.55,2.87,5.42,0,.13,0,.24.1.24s.14.19.08.5,0,.5.07.5.16.45.13,1.25a3.72,3.72,0,0,0,0,1.25c.06,0,.15.19.21.42s.21.41.34.41c.48,0,.63-.62.6-2.41a11.32,11.32,0,0,1,.21-2.36,2.68,2.68,0,0,0,.1-1.25,10.35,10.35,0,0,1,0-3.56c.11-.07.13-.55.06-1.26s0-1.16.06-1.16.14-.34.09-.83,0-.83.08-.83.13-.37.09-.88c-.09-1-.44-1.38-1.38-1.31a1.12,1.12,0,0,1-.73-.12c0-.09-.4-.12-.77-.07s-.66,0-.66-.07-.23-.13-.5-.09-.5,0-.5-.08-.23-.13-.5-.09-.5,0-.5-.12-.08-.15-.17-.09A5,5,0,0,1,108,1.55c-.72-.15-1.56-.29-1.87-.32A7.45,7.45,0,0,1,103.83.8c0-.06-.22-.08-.5,0s-.5,0-.5-.08-.3-.12-.66-.08-.67,0-.67-.08-.36-.16-.79-.17L95,.19c-2.69-.08-4.92-.12-5-.08m38.65,1.43c-.6.44-.14.75,1.11.75a2.47,2.47,0,0,1,1.17.15c0,.07.19.1.42.06s.41,0,.41.09.14.14.29.1c.72-.16,3.27,1.94,3,2.44a.13.13,0,0,0,.07.19c.31.11.38,1.39.54,9.64.18,9.64.09,8.83,1,8.71.41-.05.67,0,.67.08s.26.14.67.09.67,0,.67.08.26.14.66.08.67,0,.67.06a2.49,2.49,0,0,0,1.17.19l1.16.05,0-3.3c0-1.81.06-5.5.07-8.21,0-6.65.08-7.11.91-8.59A3.26,3.26,0,0,1,146,2.55c.35,0,.63-.06.63-.13s.34-.13.75-.13c.8,0,1.12-.3.77-.72s-19-.34-19.47,0m36.69-.1c-.25.25,0,.71.48.92A1.68,1.68,0,0,1,167,4.12c0,1.42-1.2,2.87-9.1,11-5.65,5.82-9.43,9.81-9.42,9.94s.2.16.43.19.42.12.42.2.11.11.24.06a3.64,3.64,0,0,1,1.19.11l1,.19,4.19-4.14c14-13.86,18.6-17.9,21-18.47.17,0,.76-.23,1.31-.42a7.43,7.43,0,0,1,2-.38c1.22,0,1.87-.45,1.33-.85-.29-.21-16-.33-16.17-.12M109.79,25.85a7.22,7.22,0,0,1-2.06.1,12.37,12.37,0,0,0-2.45.09,5.87,5.87,0,0,1-1.54.05c-.76-.05-1.24,0-1.24.08s-.46.13-1.17.08a3.18,3.18,0,0,0-1.27.07,2,2,0,0,1-1,.14,40.1,40.1,0,0,0-4.92.33,9.51,9.51,0,0,1-2.06.09c-.29-.07-.38,0-.29.09s-.08.18-.57.13-.69,0-.69.08-.24.12-.54.1a2.27,2.27,0,0,0-.84.09,1.09,1.09,0,0,1-.62,0,.44.44,0,0,0-.43.07.66.66,0,0,1-.54.12,1.16,1.16,0,0,0-.66.09,1,1,0,0,1-.62,0c-.22,0-.44,0-.48,0a2.12,2.12,0,0,1-1,.13,2.07,2.07,0,0,0-1,.11,2.24,2.24,0,0,1-1,.17c-.52,0-1,.1-1,.18s-.18.11-.41.07-.42,0-.42.06-.19.15-.43.15-.39-.07-.32-.21,0-.07-.15.1a.58.58,0,0,1-.59.23c-.19-.05-.34,0-.34.07S79,29,78.79,29a2,2,0,0,0-.46,0,2.63,2.63,0,0,1-.5.08c-.22,0-1,.16-1.79.32a5,5,0,0,1-1.56.17q-.2-.12-.06.09c.1.17,0,.2-.31.14s-.45,0-.48.06S73.32,30,73,30a4.33,4.33,0,0,0-.83.15,4.59,4.59,0,0,1-.93.18,14.59,14.59,0,0,0-1.71.34,3.17,3.17,0,0,1-1.2.17c-.09-.05-.16,0-.16.06,0,.27-.87.41-1,.16S67,31,67,31.17a.32.32,0,0,1-.29.31,8.57,8.57,0,0,0-2.1.39,2.7,2.7,0,0,1-1.13.16c-.12-.07-.15-.05-.09,0s-.09.21-.35.26-.51,0-.58-.11-.12-.1-.12.08-.56.46-1.51.57c-.49.06-7.77,2.33-9.9,3.09a5,5,0,0,1-1.46.39c-.07,0-.14,0-.14.08s-.24.21-.53.28a14.15,14.15,0,0,0-1.69.59,3.93,3.93,0,0,1-1.3.38c-.08,0-.14,0-.14.09s-.12.18-.27.18a7.42,7.42,0,0,0-1.43.51,14.28,14.28,0,0,1-1.44.57c-.15,0-1,.37-1.86.75L37.92,41c-2.13.92-7.33,3.36-7.67,3.58s-.11.27,1.85-.28a8.62,8.62,0,0,1,1.92-.4c.08,0,.15,0,.15-.09s.21-.17.47-.17A6.33,6.33,0,0,0,36,43.37a2.68,2.68,0,0,1,1-.17.13.13,0,0,0,.2-.07c0-.09.32-.18.64-.21a1.36,1.36,0,0,0,.68-.17,1.48,1.48,0,0,1,.67-.19,3.23,3.23,0,0,0,.57-.11.87.87,0,0,1,.33-.07c.19,0,1-.2,1.88-.4a7,7,0,0,1,1.71-.27c.09.06.16,0,.16-.09s.14-.16.33-.12.35,0,.37,0a1.79,1.79,0,0,1,.89-.22,20,20,0,0,0,2-.35,5,5,0,0,1,1.37-.19c.13.05.23,0,.23-.09s.18-.15.42-.1.41,0,.41,0A3.9,3.9,0,0,1,52,40.15c.08.12.14.12.18,0s.37-.23.73-.27,1.25-.18,2-.32a5.45,5.45,0,0,1,1.54-.17c.13,0,.24,0,.24-.07s.19-.16.42-.16.39.06.32.2,0,.07.15-.09a.69.69,0,0,1,.55-.26.84.84,0,0,0,.51-.08c.31-.19.57,0,.54.45a1.38,1.38,0,0,0,0,.44,3.35,3.35,0,0,1,.09.42,13.6,13.6,0,0,0,.51,2.12,2,2,0,0,1,.15,1c-.06.09,0,.17.06.17s.32.48.5,1.07C62.77,51.93,70.86,60.26,78,62.61c.39.13.63.31.63.49s0,.21.13.07.39-.1,1.18.23a9.35,9.35,0,0,0,1.58.49c.29,0,.55.14.58.23s.12.14.19.09a12,12,0,0,1,2.1.43,16.46,16.46,0,0,0,2.56.52,2.07,2.07,0,0,1,.76.1,1.24,1.24,0,0,0,.62,0c.26,0,.46,0,.46.14s.17.14.42.08a1.4,1.4,0,0,1,.71,0,3.4,3.4,0,0,0,1.08.09c.44,0,.79,0,.79.11a47.17,47.17,0,0,0,5,.14,42.69,42.69,0,0,0,5-.15c0-.08.42-.11.92-.07s.92,0,.92-.08.28-.13.63-.1a2.06,2.06,0,0,0,.84-.09,1,1,0,0,1,.62,0c.22.06.41,0,.41,0s.32-.16.7-.16a10.14,10.14,0,0,0,2.13-.42,6.76,6.76,0,0,1,1.54-.33c.07,0,.13,0,.13-.08s.33-.28.73-.43A3.85,3.85,0,0,0,113.49,62a32.43,32.43,0,0,0,1-4.62,1.5,1.5,0,0,1,.16-.8.29.29,0,0,0,0-.33.82.82,0,0,1,0-.53,1.37,1.37,0,0,0,.09-.6.69.69,0,0,1,.26-.55c.17-.14.21-.21.1-.15s-.21,0-.21-.32.07-.42.16-.42.12-.11.07-.24a6.29,6.29,0,0,1,.09-1.47c.49-3.52-.94-2.89-1.57.7-.41,2.37-2.59,5.74-4.34,6.72-.86.48-2.41,1.29-2.45,1.28a1,1,0,0,0-.29.06c-2,.64-2.52.79-2.65.71a.14.14,0,0,0-.22.07c0,.1-.39.2-.8.22a3.55,3.55,0,0,0-.92.13c-.44.25-7.58.32-9.75.11l-1.5-.14a3.16,3.16,0,0,1-.5-.1,4.33,4.33,0,0,0-.83-.15c-.32,0-.6-.13-.63-.22s-.21-.11-.4-.06-.32,0-.22-.12.07-.18-.06-.1a1.35,1.35,0,0,1-.76-.07c-.32-.1-.77-.22-1-.27a35.59,35.59,0,0,1-5.11-2.32,4,4,0,0,0-.72-.41c-.6,0-5.67-4.22-5.47-4.55.06-.09,0-.12-.06-.06s-1.19-1-2.67-2.72c-.41-.5-1.59-2.21-2.35-3.42a48.74,48.74,0,0,1-2.26-4.75,8.19,8.19,0,0,0-.34-1.14,2,2,0,0,1-.17-.88c0-.08,0-.15-.06-.15A7.33,7.33,0,0,1,66.5,38c0-.13.17-.17.5-.1s.5,0,.5-.08.25-.15.54-.12a1.7,1.7,0,0,0,.75-.08,1.84,1.84,0,0,1,.74-.12c.84,0,2.12-.1,5.11-.41a23.33,23.33,0,0,1,3.12-.18c.25.07.41,0,.41-.08s.32-.17.87-.14a4,4,0,0,0,1.18-.09,3.36,3.36,0,0,1,1.21,0c.55.05.9,0,.9-.08s.52-.16,1.21-.16,1.88,0,2.71-.06C92,36,95,35.92,102.08,35.92s10.14,0,16.67.29c.92,0,2.28.06,3,.06a3.85,3.85,0,0,1,1.46.16,2,2,0,0,0,1.09.07,3.67,3.67,0,0,1,1.29,0,5,5,0,0,0,1.35.09c.65,0,1,0,1,.13s.19.14.47.09a18.75,18.75,0,0,1,2.67.09l3.39.27a6.54,6.54,0,0,1,1.27.15c.1.1-.21,16.29-.36,19.34-.06,1.19-.11,2.37-.12,2.62s0,.46-.12.46-.12.24-.14.54-.1.56-.2.59a.2.2,0,0,0-.09.27c.34.89-1.55,2.25-3.27,2.36-1.53.09-2.18.55-1.46,1a54.64,54.64,0,0,0,7.46,0,5.27,5.27,0,0,1,1.59-.12,4.39,4.39,0,0,1,1.52.12c-.06.11,7.54.17,8.68.08.54,0,.85-.7.39-.82-.19-.05-.35-.16-.35-.24s-.25-.11-.56-.05a13.11,13.11,0,0,1-3.27-.34,2.81,2.81,0,0,0-.37-.07c-.7-.08-2.18-2.51-2.2-3.64,0-.3-.08-.54-.16-.54s-.1-.37-.05-.83,0-.87-.08-.93a4.51,4.51,0,0,1-.14-1.72c0-.88,0-5.22-.07-9.65-.08-7-.06-8,.16-8s.24.07.24.15.34.11.75.06.75,0,.75.09.22.15.58.09a2.2,2.2,0,0,1,.87,0,8,8,0,0,0,1.47.18c1.34.08.77-.4,5.16,4.42,2.93,3.21,4.11,4.48,8.17,8.72a30.06,30.06,0,0,1,2.95,3.34c0,.1,0,.13.07.06a39.44,39.44,0,0,1,4.93,4.76c0,.07,0,.09.13,0a7.45,7.45,0,0,1,1.88,1.2c2.62,2,4.06,2.85,5,3a1.58,1.58,0,0,1,.6.19,1.5,1.5,0,0,0,.66.16c.32,0,.61.11.63.18s.35.08.73,0,.65,0,.6.08c-.19.31,11.17.18,11.47-.13s.19-.64-.26-.64a.54.54,0,0,1-.42-.18c-.07-.11-.41-.14-.91-.07a4.56,4.56,0,0,1-1.44-.06,12.47,12.47,0,0,0-1.23-.27,19.86,19.86,0,0,1-3.5-1.41.61.61,0,0,0-.28-.13c-1.5-.29-7.18-5.33-16.73-14.84-7.81-7.78-7.41-7.28-5.79-7.11a12.76,12.76,0,0,0,1.75.1,1.26,1.26,0,0,1,.79.23c.14.15.26.19.26.09s.22-.18.5-.18.5.07.5.17.18.12.42.06a1.47,1.47,0,0,1,.7,0,2.3,2.3,0,0,0,.84.09c.3,0,.54,0,.54.11s.26.12.58.08.59,0,.59.08a2.74,2.74,0,0,0,1.16.17,5.61,5.61,0,0,1,1.34.14,14.13,14.13,0,0,0,3,.27.94.94,0,0,1,.62.13c.06.09.36.11.68.06s.58,0,.58.08.26.14.67.08.66,0,.66.07.27.12.59.09.58,0,.58.11.1.14.23.09a11.54,11.54,0,0,1,2.16.18,31.62,31.62,0,0,0,4.06.43.88.88,0,0,1,.63.16c.06.09.29.12.51.06a1.47,1.47,0,0,1,.7,0,2.27,2.27,0,0,0,.84.09c.29,0,.54,0,.54.11s.26.12.58.08.58,0,.58.13.08.14.17.09a23.52,23.52,0,0,1,4.83.62c0,.07.15,0,.34-.08a.51.51,0,0,1,.63,0,1.19,1.19,0,0,0,.76.11.94.94,0,0,1,.65.07.82.82,0,0,0,.62.06c.5-.13.16-.34-3.54-2.17a11,11,0,0,1-2.36-1.36c0-.08,0-.1-.16,0a5,5,0,0,1-1.72-.57c-2.41-1.09-4.11-1.8-4.58-1.92a1.74,1.74,0,0,1-.67-.32.77.77,0,0,0-.38-.21,32.59,32.59,0,0,1-5-1.93c0-.07-.06-.08-.23,0a9.74,9.74,0,0,1-2.2-.58c-1.05-.36-2.27-.75-2.71-.86s-.79-.28-.79-.37-.07-.11-.15-.06a3.46,3.46,0,0,1-1.21-.25c-.58-.18-1.21-.36-1.39-.4a.89.89,0,0,1-.33-.09l-.5-.09c-.27,0-.52-.14-.56-.24a.13.13,0,0,0-.2-.08,5.65,5.65,0,0,1-1.54-.33,11.14,11.14,0,0,0-1.74-.42.6.6,0,0,1-.46-.17c-.06-.1-.17-.14-.23-.1a15,15,0,0,1-2.32-.47,12.79,12.79,0,0,0-2.28-.47s-.18,0-.31-.1-.28-.14-.33-.09-.21,0-.34-.08-.26-.15-.3-.11a18.1,18.1,0,0,1-2.64-.48,19.27,19.27,0,0,0-2.78-.49.5.5,0,0,1-.41,0,2.68,2.68,0,0,0-.86-.18,2.67,2.67,0,0,1-.85-.18,1,1,0,0,0-.56-.07c-.21,0-.38,0-.38-.1s-.23-.12-.52-.07-.48,0-.42-.09-.11-.12-.4-.08-.49,0-.49-.07-.24-.15-.54-.16-1-.07-1.46-.14a12.92,12.92,0,0,0-1.45-.11.93.93,0,0,1-.62-.14.44.44,0,0,0-.43-.06,1.18,1.18,0,0,1-.62,0,2,2,0,0,0-.77-.09.86.86,0,0,1-.72-.27c-.14-.17-.2-.21-.14-.1s-.05.21-.41.21-.51-.06-.51-.13-.31-.1-.69-.06-.65,0-.56-.13,0-.16-.3-.09a9.42,9.42,0,0,1-2.05-.09,41.73,41.73,0,0,0-5-.32,1.84,1.84,0,0,1-.95-.15,3.13,3.13,0,0,0-1.27-.07c-.76.06-1.17,0-1.17-.09s-.42-.14-1.23-.08a5.58,5.58,0,0,1-1.54,0,12.43,12.43,0,0,0-2.45-.09,7.12,7.12,0,0,1-2.06-.1,45,45,0,0,0-5.13-.14,45,45,0,0,0-5.13.14M136.38,87c0,.07-.3.1-.56,0s-.52,0-.58.08a.26.26,0,0,1-.32.09,2.71,2.71,0,0,0-1,.15,2.24,2.24,0,0,1-.93.15c-.08,0-.15,0-.15.06a3.08,3.08,0,0,1-1.1.59c-6.51,2.68-9.5,11-6.58,18.25a2.61,2.61,0,0,1,.26,1c0,.09,0,.2.16.26a5,5,0,0,1,1,1.14,14.47,14.47,0,0,0,8,5.2c.62.16,1.13.37,1.13.47s.07.06.16-.08.23-.21.46-.07a1.43,1.43,0,0,0,.83.11.91.91,0,0,1,.82.2c.19.2.31.23.39.09s.76-.18,2.11-.16a12.33,12.33,0,0,0,2.27-.09,1.58,1.58,0,0,1,.79,0c.27,0,.53,0,.58,0a1,1,0,0,1,.63-.15c1.18,0,2.93-1.14,2.69-1.77a.28.28,0,0,1,.08-.33.28.28,0,0,0,.08-.34.57.57,0,0,1,.05-.46,1.06,1.06,0,0,0,.08-.59c0-.2,0-.37.1-.37s.12-.23.08-.5,0-.5.07-.5.12-.34.09-.75c-.06-.72-.36-.92-.36-.24,0,.18-.08.32-.18.32s-.13.08-.06.18-.43,1.51-.62,1.39-.09,0,0,.18c.28.72-3.2,2.79-3.93,2.34-.1-.06-.17,0-.17.09s-.22.17-.67.11-.67,0-.67.06a2.78,2.78,0,0,1-1.25.15,2.82,2.82,0,0,1-1.25-.15c0-.09-.26-.12-.58-.07s-.58,0-.58-.08-.11-.15-.23-.1a10.05,10.05,0,0,1-3.64-1.18,2.76,2.76,0,0,0-.79-.42c-1.11,0-5.31-5.66-5.4-7.28,0-.21-.08-.38-.15-.38s-.14-.47.08-.56.1-.09-.07-.1-.29-.15-.28-.47c0-.75,0-4.75,0-5.33,0-.3.07-.54.16-.54s.11-.08.06-.17c-.22-.36,1.07-3.83,1.43-3.83a.12.12,0,0,0,.11-.16c-.31-1.12,5.3-4.62,6.61-4.12.15.05.26,0,.26-.09s.28-.15.83-.08a1.71,1.71,0,0,0,.93-.06,3.22,3.22,0,0,1,2,0c.06.09.42.12.84.06s.75,0,.75.07.19.13.41.08.42,0,.42.09.16.13.36.08.33,0,.22.12-.07.18.06.1a4.73,4.73,0,0,1,2.36.84,4.6,4.6,0,0,1,2.28,3.85c.16,1.39.39,1,.39-.61a4.07,4.07,0,0,1,.17-1.6c.12-.07.14-.48.07-1.18-.1-.92-.07-1.13.2-1.43s.22-.31.12-.24-.23,0-.29-.27-.18-.37-.77-.32c-.4,0-.67,0-.67-.11s-.11-.14-.24-.09a3.78,3.78,0,0,1-1.18-.1,21.68,21.68,0,0,0-2.83-.4,39.76,39.76,0,0,0-5.87,0M0,87.56c0,.15.2.24.54.24,1.08,0,2,.56,1.7,1-.05.08,0,.15.09.15s.16,3.22.11,11.37c-.09,13.17-.07,12.13-.27,12.13s-.12.1-.07.22-.52,1.12-.73,1.09c-.59-.08-1.39,0-1.33.23a50.85,50.85,0,0,0,8.73.09c.14-.23.07-.26-1-.34-1.56-.13-2.17-.66-2.06-1.76a1.32,1.32,0,0,0-.05-.61c-.18-.31-.3-12.62-.18-17.7.15-5.76.16-5.81,1.56-5.86.74,0,1-.14.9-.35S0,87.3,0,87.56m161.3,7.52a4.18,4.18,0,0,0,1,0c.25,0,0-.07-.55-.07s-.75,0-.45.07m-1.13.27c0,.08-.19.11-.42.07s-.42,0-.42,0-.37.22-.84.33a9.67,9.67,0,0,0-5.35,4.71c-.2.44-.43.79-.51.79s-.11.07-.06.15a1.89,1.89,0,0,1-.18.88c-.34.9-.36,5.57,0,5.36.07,0,.13,0,.13.11,0,2.48,5.19,7.11,7.34,6.55a.7.7,0,0,1,.54.08,5.26,5.26,0,0,0,2.37,0,2,2,0,0,1,.75-.11,8.8,8.8,0,0,0,4.57-2.21c.49-.45.94-.75,1-.69s.08,0,0-.09.07-.43.35-.76a4.59,4.59,0,0,0,.7-1.08c.13-.29.35-.54.5-.54s.18,0,.07-.1,0-1.06.25-1.06c.06,0,.12-.17.13-.37s.11-1,.21-1.67a8.74,8.74,0,0,0,0-2.5c-.09-.66-.18-1.36-.21-1.54a1.12,1.12,0,0,0-.12-.42,12.19,12.19,0,0,1-.63-1.18c-.81-1.67-3.18-3.85-4.45-4.09-.09,0-.55-.15-1-.3a5.9,5.9,0,0,0-1.21-.26c-.21,0-.38-.06-.38-.13a5.18,5.18,0,0,0-1.58-.12,4.52,4.52,0,0,0-1.58.14m-147,.4a8.83,8.83,0,0,0-.58,2.5c.13.13.57-.44.69-.88.18-.65.67-.78,3.48-.87l2.68-.09v8.11c0,4.46-.05,8.11-.11,8.11s-.08.13,0,.29c.12.43-.3.88-.94,1-.37.08.56.13,2.5.13,2.75,0,3,0,2.17-.19-1.47-.31-1.41.11-1.47-9.32l-.05-8.12H23.2c2.89,0,4.69.46,4.61,1.15a4.94,4.94,0,0,0,0,.6c.06,1,.31-.11.32-1.43l0-1.27-.84,0a2.85,2.85,0,0,0-.94.14c-.27.27-10.39.12-10.81-.16-.25-.16-.41-.19-.41-.08s-.83.24-1.41,0c-.39-.15-.45-.11-.61.29m18.91-.32a4,4,0,0,0-.46,2.09.29.29,0,0,1-.1.35.42.42,0,0,0-.08.44.66.66,0,0,1-.1.58c-.11.13-.16.29-.1.34s.57-.33.49-.56c-.14-.43.78-1.57,1.23-1.53.06,0,.16-.07.22-.17.18-.29,1-.36,5.05-.46,4.24-.1,4.1-.15,3.32,1.06-.25.38-.74,1.17-1.1,1.75-1.31,2.1-8.58,13.15-8.76,13.31A4.07,4.07,0,0,0,31,114s3.05.13,6.69.19l6.62.12.26-.91a13.39,13.39,0,0,0,.33-1.47c0-.31.12-.77.18-1,.2-.82-.22-.5-.51.38A2.49,2.49,0,0,1,42.5,113c-.28,0-.5.06-.5.11s-1.91.09-4.25.09-4.25-.06-4.25-.12a5.27,5.27,0,0,1,1.31-1.69c.1,0,.14,0,.09-.17A9.94,9.94,0,0,1,36.14,109c1.18-1.77,2.86-4.34,5.84-8.93,1.63-2.52,2.6-4,2.66-4.17s-6.09-.27-11.22-.31a2.25,2.25,0,0,1-1.08-.16.2.2,0,0,0-.28,0m33.44,0a4.46,4.46,0,0,0-.62.25.84.84,0,0,1-.8,0,3.26,3.26,0,0,0-1.46-.09c-1.21.12-1.67.29-1.14.43.19,0,.35,0,.35-.06,0-.27.62-.15,1.08.21.29.23.42.46.37.66s0,.32.07.32a16.69,16.69,0,0,1,.15,3.15v3.16H58.28c-2.88,0-5.35,0-5.5-.09s-.27-.46-.2-3.41c.09-4,.22-4.35,1.53-4.07.33.07.4.05.22-.06a3.92,3.92,0,0,0-2.24-.2.93.93,0,0,1-1,0,5.12,5.12,0,0,0-2.6.07c0,.13.19.17.56.11a1.07,1.07,0,0,1,1,.33l.48.42v7.3c0,9.79,0,9.74-1.3,10-.51.12.13.16,2.47.15A20,20,0,0,0,54.5,114c-1.24-.21-2-.76-1.75-1.21a.17.17,0,0,0,0-.23,36,36,0,0,1-.13-4.22v-4.14H63.42v3.25c0,5.77-.08,6.17-1.14,6.48-.37.11.36.15,2.47.15,2.45,0,2.84,0,2.11-.17-1-.19-1.47-.83-1.28-2,.07-.38,0-.67-.07-.73a137.73,137.73,0,0,1,0-13.93c.08,0,.11-.11.06-.25-.12-.31.39-1.13.61-1s.16,0,.16-.1.17-.17.42-.12.42,0,.42-.11-.22-.17-.61-.12-.65,0-.7-.1a.34.34,0,0,0-.36-.09m12.27,1.38a12.12,12.12,0,0,0-.6,1.75.23.23,0,0,1-.2.25c-.1,0-.15,0-.09.1s-.21,1.07-.41,1.07-.11.07-.06.16a1.37,1.37,0,0,1-.17.79,6.88,6.88,0,0,0-.32.88,12.77,12.77,0,0,1-1.47,3.39c-.1-.06-.12,0,0,.09.21.33-.06,1.19-.37,1.19s-.23,0-.06.15.19.22,0,.62a8.7,8.7,0,0,0-.44,1.15c-1.22,4-2.06,5.31-3.65,5.58-.53.08.14.13,2.06.13,1.56,0,2.6,0,2.32-.12a3.39,3.39,0,0,1-.7-.24c-.27-.17-.12-1.74.25-2.6a2.29,2.29,0,0,0,.25-1c0-.12,0-.21.08-.21s.16-.16.17-.36a.81.81,0,0,1,.16-.46.76.76,0,0,0,.17-.44,5.27,5.27,0,0,1,.37-1.13l.33-.78h2.85c2.79,0,2.84,0,3,.38,2.2,5.55,2.46,6.35,2.17,6.71s.1.24,2.36.23c2.1,0,2.41,0,1.74-.18a3.6,3.6,0,0,1-1.28-.49,8.18,8.18,0,0,1-1.72-3.17c0-.08,0-.14-.09-.14s-.17-.14-.17-.3a5.15,5.15,0,0,0-.42-1.18,2.43,2.43,0,0,1-.32-1c0-.08,0-.15-.07-.15s-.26-.28-.37-.63-.46-1.26-.78-2-.6-1.53-.63-1.66-.31-.89-.63-1.67c-1.41-3.48-1.82-4.65-1.73-4.91s0-.24,0-.19-.23-.13-.35-.41c-.33-.81-.43-.73-1.06.84m138-1.4c-.07.07-.12,4-.13,8.64,0,6.07,0,8.44-.18,8.26s-.15-.15-.08.2c.17.76-.11,1.19-.92,1.41-.64.17-.37.19,2.1.19,2,0,2.63,0,2.11-.14-.81-.16-1.51-.56-1.54-.87-.08-.73-.11-1.41-.21-4.62-.05-2-.15-4.93-.2-6.58l-.1-3,.87.91c.48.51,2,2.12,3.31,3.58,3.31,3.63,7.87,8.42,9.37,9.84l1.23,1.17.08-8.25.09-8.25.08,7.41.09,7.42,0-8.16,0-8.16.38-.31a.88.88,0,0,1,.77-.21c.21,0,.38,0,.38-.05s-1.69-.35-2-.15-.47.1-1-.1-.68-.21-.68-.09-.31.16-.84.12-.83,0-.83.13.22.17.67.11.66,0,.66.11.07.16.15.11c.73-.45.8.12.93,7.33.05,3.11.14,6.08.2,6.61.14,1.33.08,1.29-2.54-1.58-1.28-1.4-3.52-3.85-5-5.44a33.54,33.54,0,0,1-2.62-3c0-.08,0-.13-.1-.11A36.06,36.06,0,0,1,216.57,96c-.36-.4-.71-.67-.78-.6m-125.25.19c-.48,0-.87.13-.87.22s.21.11.47.06c.91-.19,1.44.51,1.49,2,.17,4.81.19,11.7,0,11.89a3.63,3.63,0,0,0-.06,1.68c.09,1.07.07,1.42-.07,1.34s-.16,0-.1.12c.16.43-.23.9-.88,1.07-.49.13,0,.17,2.28.17s2.77,0,2.11-.17c-1-.21-1.36-.86-1.19-2.15.08-.54.06-.81-.07-.81a31.05,31.05,0,0,1,0-6.4c.08,0,.39.22.7.6s1.74,2,3.2,3.52c4.83,5.16,5.29,5.46,8.27,5.43a5.81,5.81,0,0,0,1.61-.09,6.91,6.91,0,0,1-4.09-2.15,104.89,104.89,0,0,1-7.83-8.07c0-.39,5.61-5.89,5.86-5.74s.15,0,.08-.06c-.3-.49,2.58-2.32,3.33-2.13.22,0,.4,0,.4-.05a3.91,3.91,0,0,0-2.23-.2.9.9,0,0,1-1,0,1.28,1.28,0,0,0-.81-.06c-.49.08-.57.14-.37.25.42.24.32.79-.26,1.45-1.12,1.29-6.7,7-6.83,7a20.74,20.74,0,0,1-.14-3.42c0-2.47,0-3.4.19-3.32s.14,0,.07-.4c-.15-.69.53-1.45,1.16-1.29.28.07.41,0,.41-.11s-1.88-.29-2.39,0a.67.67,0,0,1-.63,0,1.15,1.15,0,0,0-.6-.16l-1.17.09m85.84,0c-.49,0-.88.14-.88.23s.15.12.35.06a1.26,1.26,0,0,1,1.5.9c.26.89.12,15.75-.16,16.47a1,1,0,0,1-.83.69c-.45.12.19.16,2.56.16,2.18,0,2.89,0,2.27-.14-1.34-.19-1.61-.54-1.61-2.07a4.48,4.48,0,0,0-.12-1.35,21.35,21.35,0,0,1-.13-3.18c0-3.68-.77-3.25,5.78-3.19l5,0,.08,4.14c.09,5.09,0,5.34-1.12,5.62a9.15,9.15,0,0,0,2.57.12c2.74,0,3,0,2.17-.19-1.06-.22-1.41-.67-1.25-1.58.07-.38,0-.52-.08-.45s-.18-2.14-.18-7.41A61.3,61.3,0,0,1,192.5,97c.09.06.12,0,.06-.16-.18-.47.6-1.13,1.18-1,.3,0,.43,0,.34-.05-.25-.24-2.25-.41-2.25-.2s-.71.23-.92,0a5.61,5.61,0,0,0-2.58.18c0,.07.26.09.58,0,.72-.11,1.52.57,1.36,1.17-.05.2-.1,1.73-.1,3.41v3l-5.38,0-5.37,0,0-2.63c0-2.11,0-2.72.21-3.12s.19-.5.09-.5c-.31,0-.17-.52.26-.95a.93.93,0,0,1,.83-.35c.23,0,.41,0,.41-.1s-1.93-.25-2.4,0a.65.65,0,0,1-.62,0,1.16,1.16,0,0,0-.61-.16l-1.16.09m23.66,0c-.48,0-.87.13-.87.21s.24.11.54.06a1.16,1.16,0,0,1,1,.27l.46.37v8.29c0,9.13,0,8.86-1,9.15-.36.1,1,.19,4.24.27,5.22.14,5.08.16,5.24-.66.06-.32.16-.58.22-.58s.09-.22.05-.48,0-.53.11-.59.26-.76.06-.76-.25.31-.39.7-.34.69-.46.67-.17,0-.11.11-.67.75-.91.6c-.09-.06-.17,0-.17.06,0,.42-3.83.11-4.28-.35l-.43-.43,0-3.93,0-3.93H205c1,0,1.71.06,1.71.17s.17.12.41.06.42,0,.42.09.07.15.16.1c.33-.21.87.57.75,1.09s.3.72.49.23c0-.15,0-.22-.07-.16s-.16-.23-.16-.73a2.07,2.07,0,0,1,.13-.92c.08,0,.11-.34.07-.65l-.07-.58-.5.25a7.72,7.72,0,0,1-2.74.27l-2.24,0,0-3.71,0-3.71h1.83c2.49,0,3.85.42,3.74,1.12a2.41,2.41,0,0,0,0,.55c0,.68.34,0,.35-.75a7,7,0,0,1,.14-1.25l.14-.59h-.73c-.39,0-.72,0-.72.13a47.63,47.63,0,0,1-6.58-.07,6.88,6.88,0,0,0-1.38,0m-38.46.54c.29.12.4.12.34,0s.14-.16.5-.16.56.05.52.12.12.14.37.15a3.25,3.25,0,0,1,.94.24,4.43,4.43,0,0,0,.62.22c.29,0,1.3,1,1.21,1.11s0,.12.12.07c.74-.28,3.11,4.21,2.74,5.17-.05.14,0,.25,0,.25a12.54,12.54,0,0,1,0,3.77.18.18,0,0,0-.05.24c.16.25-.11,1.33-.3,1.21s-.12,0-.06.08c.56.9-3,5.16-3.88,4.63a.14.14,0,0,0-.21.07c-.16.48-4.45.48-4.61,0a.14.14,0,0,0-.21-.08c-.47.29-2.82-1.62-3.81-3.09-.87-1.29-2-4.8-1.37-4.44.13.08.16,0,.09-.14s-.16-.26-.24-.26a4.42,4.42,0,0,1,0-2.23.86.86,0,0,0,.06-.59c0-.3,0-.51.11-.51s.14-.1.09-.23a2.06,2.06,0,0,1,.18-1,9.35,9.35,0,0,0,.31-1c.09-.45,1.12-1.72,1.3-1.6s.15,0,.07-.08c-.53-.85,3.78-2.55,5.15-2M78.33,99.21a9,9,0,0,0,.52,1.53,10.57,10.57,0,0,1,.53,1.59c0,.16.08.3.16.3s.13.13.13.29a8.37,8.37,0,0,0,.49,1.54c.71,1.8.88,1.67-2.08,1.67-2.67,0-3-.09-2.37-.7a1,1,0,0,0,.23-.47,19.24,19.24,0,0,1,1.45-4.22c.09.06.12,0,.06-.06A3.34,3.34,0,0,1,77.88,99c.19-.24.45-.12.45.21m-21.4,30.73a.83.83,0,0,1-.58.19c-.62,0-1.86,1.08-2.26,2a1.82,1.82,0,0,1-.41.68s-.11.17-.12.38c-.12,2-.59,3.23-1.18,3.26-1.5.07-1.87.59-.46.66l1,0,0,.69a2.16,2.16,0,0,1-.09.86,1.78,1.78,0,0,0-.06.72c0,.32,0,.55-.13.55s-.15.16-.08.41a1.29,1.29,0,0,1,0,.71,2.36,2.36,0,0,0-.09.86c0,.39,0,.52-.16.43s-.17,0-.09.23a9.88,9.88,0,0,1-.17,2.23,23.52,23.52,0,0,0-.27,2.59,1.44,1.44,0,0,1-.14.79c-.08,0-.1.2,0,.34a.82.82,0,0,1,0,.53,1.6,1.6,0,0,0-.09.67c0,.21,0,.38-.1.38s-.15.24-.17.54a3.34,3.34,0,0,1-3.4,3.42c-1.48,0-2.24.4-1.2.63a4.25,4.25,0,0,1,.71.2,2.94,2.94,0,0,0,1.51,0,1.2,1.2,0,0,1,.54-.18,4,4,0,0,0,2-2c.17-.36.37-.65.45-.65s.11-.06.07-.14a4.35,4.35,0,0,1,.25-1.29,10,10,0,0,0,.34-2,2.12,2.12,0,0,1,.15-1c.07,0,.09-.34,0-.66s0-.58.06-.58.12-.26.08-.58,0-.59.09-.59.12-.26.08-.58,0-.58.11-.58.14-.11.1-.23a11.54,11.54,0,0,1,.19-2.21c.15-1.09.27-2.28.27-2.65a1.77,1.77,0,0,1,.26-1c.16-.18.19-.29.07-.29s-.2-.15-.2-.33c0-.36-.06-.35,2.67-.36.85,0,1.31-.24,1.33-.68a7.29,7.29,0,0,0-1.92-.13c-1.49,0-1.9,0-1.8-.2a1.72,1.72,0,0,0,.08-.75c0-.3,0-.55.13-.55s.13-.11.07-.25a6.34,6.34,0,0,1,1-2.89c.59-.64,1.11-.8,2.56-.78,1.24,0,1.37,0,1.45-.31s.1-.43-.59-.52l-1.17-.18c-.36-.06-.64,0-.71.08m92.42,2.75c-.57.61-.36,1.27.41,1.27.29,0,1.07-1,.85-1.09l-.46-.29c-.42-.26-.46-.25-.8.11M140.74,134a3.63,3.63,0,0,0-.25.87c0,.56-.44,1.47-.67,1.47a3.73,3.73,0,0,0-1.69.47c-.26.4-.1.47.87.41s1,0,1,.24-.06.29-.13.29-.1.27-.06.61,0,.57-.13.48-.16,0-.1.27a12.27,12.27,0,0,1-.23,2.39,13.61,13.61,0,0,0-.23,2.21.5.5,0,0,1-.1.44.53.53,0,0,0-.09.5.83.83,0,0,1,0,.56,2.27,2.27,0,0,0-.09.84,1.35,1.35,0,0,1-.16.79c-.14.17-.15.25,0,.25s.23.78,0,.88-.1.09.07.1a.44.44,0,0,1,.35.33c.24.91,2,1.24,3.76.71,1-.3,1.16-.41,1.09-.67s-1.06-.43-1.06-.13c0,.08-.22.11-.5.05s-.5,0-.5.06-.22.17-.5.17-.5-.08-.5-.17-.1-.12-.22-.07c-.36.14-.81-.53-.82-1.21,0-1.85.1-2.9.36-3.06s.19-.15.06-.16-.29-.83-.05-.83c.08,0,.11-.27.06-.59s0-.58.08-.58.14-.22.09-.58,0-.59.08-.59.14-.11.09-.24a13.69,13.69,0,0,1,.36-3c.06-.31.18-.33,2-.28l1.94.05-.05-.38c-.06-.38-.12-.39-1.92-.44l-1.86,0,.06-.87c0-.48.09-1.15.11-1.5.06-.78-.14-.8-.46,0M76,136.1c0,.18-.21.21-.85.15a1.76,1.76,0,0,0-.93.07.3.3,0,0,1-.28.12c-.55-.06-1,0-1,.26s.56.64.72.48a.48.48,0,0,1,.4,0,1.58,1.58,0,0,0,.66.1.52.52,0,0,1,.46.14c.06.1,0,.18,0,.18s-.12.29-.07.69,0,.66-.11.56-.18,0-.1.22a5.67,5.67,0,0,1-.08,1.61,26.89,26.89,0,0,0-.35,3.25,2.47,2.47,0,0,1-.09.67,2.18,2.18,0,0,0-.07.79c0,.29,0,.54-.11.54s-.12.23-.08.51a.71.71,0,0,1-.23.76c-.18.14-.22.21-.11.15s.21.07.21.5-.06.56-.14.51-.1.14-.06.41.87.8.87.41c0-.05.11-.82.26-1.71s.29-1.92.33-2.29c.14-1.58.22-2,.4-2.05s.14-.12.09-.2c-.16-.27,1-3.13,1.7-4,1-1.34,1.39-1.56,2.87-1.56s1.85-.51.81-.94c-1.57-.65-3.25.34-4.4,2.6-.72,1.4-1,1.71-.84,1a9.84,9.84,0,0,0,.32-3.67c-.1-.27-.19-.39-.2-.27m97.1.11c-.06.15-.17.23-.25.18-.5-.31-2.79,1.76-3.72,3.36-.23.39-.47.66-.54.59s-.07,0,0,.17,0,.28-.07.28-.24.07.09-2c.43-2.69.35-2.77-2.36-2.41l-.94.11c-.24,0-.41.13-.37.22a1.35,1.35,0,0,0,1.15.48.57.57,0,0,1,.44,0,1.68,1.68,0,0,0,.63.14c.37,0,.43.09.48.65s0,.6-.15.52-.16,0-.08.23a11.08,11.08,0,0,1-.16,2.31c-.15,1.08-.28,2.28-.28,2.67a1.49,1.49,0,0,1-.14.8c-.09,0-.11.3-.06.56s0,.52-.07.58a.42.42,0,0,0-.08.43,1.12,1.12,0,0,1,0,.63,1.91,1.91,0,0,0-.09.75c0,.25,0,.46-.12.46s-.11.23-.07.52,0,.57-.15.66,0,.15.39.15c.69,0,.64.12,1-2a13.43,13.43,0,0,0,.18-1.87c0-.34.06-.67.15-.72a.36.36,0,0,0,.07-.39c-.35-1.1,2.43-5.71,4-6.71,2.1-1.3,3.16-.26,2.85,2.78a35.11,35.11,0,0,0-.31,3.94,1.17,1.17,0,0,1-.16.72c-.1.06-.13.29-.07.51a1.47,1.47,0,0,1,0,.7,2.24,2.24,0,0,0-.09.83c0,.3,0,.55-.13.55-.24,0,0,1.36.27,1.7s.46.28,1,.25.68-.07.65-.1.31-.37.76-.74c1.18-1,1.12-1.16-.19-.69a2.55,2.55,0,0,1-1,.18.35.35,0,0,0-.38.12c-.05.11,0-.3,0-.89.17-1.73.22-2.54.22-3.2a1.09,1.09,0,0,1,.16-.71c.09-.06.12-.32.07-.59a1.86,1.86,0,0,1,0-.79,2.94,2.94,0,0,0,.1-1c0-.39,0-.71.12-.71s.21-.12.26-.26,0-.22-.06-.16-.17-.31-.17-1c0-1.43-.68-3-1.18-2.68-.07.05-.17,0-.23-.09s-.3-.12-.53-.06-.47,0-.55-.1-.15-.13-.23.08m-113,.08a1.48,1.48,0,0,1-.76.12c-.87,0-1.17.37-.52.64a1.2,1.2,0,0,0,.66.12.81.81,0,0,1,.5,0,2.4,2.4,0,0,0,.71.15c.23,0,.41.09.41.18a20.64,20.64,0,0,1-.37,2.81,22.09,22.09,0,0,0-.2,3.4c0,.39-.06.71-.15.71s-.11.36-.07.81,0,.86-.1.93a1.49,1.49,0,0,0,0,1.33,1.22,1.22,0,0,1,.25.59c.55,2.77,5,1.19,6.77-2.42.36-.74.67-1,.67-.49,0,.14-.06.25-.13.25s-.11.23-.06.52,0,.49-.08.44-.16.53-.19,1.29c-.07,2,.6,2.42,2.14,1.44s1.7-1.53.09-1a4.7,4.7,0,0,1-1.17.3,23.58,23.58,0,0,1,.6-4.29c.07,0,.06-.2,0-.37a.69.69,0,0,1,0-.61,1.67,1.67,0,0,0,.08-.84c0-.32,0-.54.09-.54s.14-.22.08-.58,0-.58.08-.58.14-.23.09-.59,0-.58.08-.58.14-.22.08-.58,0-.59,0-.59.16-.41.18-.92c0-.8,0-.91-.3-.91a.66.66,0,0,0-.68.86c0,.27,0,.47-.11.47s-.14.11-.09.23a4.08,4.08,0,0,1-.08,1.21c-.1.54-.22,1.41-.26,1.94-.45,5-7,10.53-7,5.85a15.37,15.37,0,0,1,.24-3.82c.07,0,.09-.34,0-.66s0-.58.1-.58.15-.15.09-.42a1.4,1.4,0,0,1,0-.71,2.21,2.21,0,0,0,.09-.83c0-.3,0-.54.11-.54a6.67,6.67,0,0,0,0-3.08,4.82,4.82,0,0,0-1.88-.09m37.06,0a3.37,3.37,0,0,1-1.5.38c-.08-.05-.13,0-.1.05a3.5,3.5,0,0,1-.81.93,9.45,9.45,0,0,0-2.47,6.79,4.93,4.93,0,0,1-.13,1.62q-.16.21,0,.21c.09,0,.2.22.26.48.46,2.3,3.91,3.42,6.78,2.19,1.84-.79,1.73-1.28-.16-.67a4.39,4.39,0,0,1-1.51.29c-.18-.05-.38,0-.43.06s-1.4.19-1.4,0-.11-.12-.24-.07c-.55.21-2.22-1.2-2-1.71,0-.12,0-.22-.09-.22s-.14-.15-.09-.34,0-.37-.07-.42a4.56,4.56,0,0,1,0-2.32c.09-.06.12-.33.06-.6s0-.49.08-.49.13-.15.08-.33,0-.34.11-.34.15-.07.1-.15c-.53-.85,2.12-4.24,3.45-4.42a3.85,3.85,0,0,0,.67-.17,2.58,2.58,0,0,1,1,0,9.55,9.55,0,0,0,1.08.11c.21,0,.38.07.38.16s.11.11.25.06.25.09.25.91a2,2,0,0,1-.17,1.06c-.23.08,0,.81.25.81s.26-.19.32-.42.18-.42.28-.42.13-.06.08-.14a2.16,2.16,0,0,1,.17-.92,2.07,2.07,0,0,0,.14-1.07.92.92,0,0,1-.09-.45c0-.09,0-.11-.07-.05s-.37,0-.67-.11-.59-.19-.63-.14a.29.29,0,0,1-.28,0,9.76,9.76,0,0,0-2.86-.07m7.75,0a.46.46,0,0,1-.36.11c-1-.1-1.26.11-.7.68.19.18.34.25.34.16s.15-.16.33-.16.33.05.33.13.21.13.46.12.47.08.51.45,0,.46-.09.46-.11.26-.07.59,0,.58-.13.58-.15.08-.09.17a21.29,21.29,0,0,1-.63,4.62c-.11.14-.1.21,0,.21s.25.61,0,.74-.11.36-.06.68,0,.58-.09.58-.16.15-.09.41a1.29,1.29,0,0,1,0,.71,2.27,2.27,0,0,0-.09.84c0,.34,0,.54-.18.54s-.16,0,0,.18c.68.67,1.89-2.41,1.43-3.64a.82.82,0,0,1,.05-.5,1.46,1.46,0,0,0,.09-.63c-.07-.76,1.55-4.83,1.85-4.64.11.07.14,0,.06-.08s.7-1.42,1.4-1.94c.46-.33.68-.38,1.68-.32s1.16,0,1.16-.26c0-.8-1.35-1.11-2.58-.6a2.94,2.94,0,0,1-.61.21s0,0,0,0a3.88,3.88,0,0,1-.56.79,11.86,11.86,0,0,0-1.15,1.85c-.65,1.32-.7,1.11-.31-1.18.23-1.34.23-1.63,0-1.81a2.84,2.84,0,0,0-1.92-.08m12.84-.06a1.21,1.21,0,0,1-.44.13c-1.27.19-3.14,2.19-3.8,4.05a8.34,8.34,0,0,1-.48,1.17c-.12.1-.17.7-.21,2.83-.1,4.71,2.58,6.12,7.88,4.13.56-.2.58-.24.32-.51s-.33-.27-.9,0a1.37,1.37,0,0,1-.76.17c-.08-.05-.17,0-.21.1s-.34.21-.69.23a1.76,1.76,0,0,0-.72.15c-.17.17-1.39.12-1.39-.06s-.1-.12-.23-.07c-.3.12-1-.23-.85-.44s0-.11-.15-.06-1.2-1.14-1-1.41a.16.16,0,0,0-.09-.23,2.76,2.76,0,0,1-.27-1.28c-.09-1.19-.08-1.22.27-1.11s.35.05.35-.07.25-.18.63-.16a2.54,2.54,0,0,0,.91-.09.92.92,0,0,1,.54,0,.28.28,0,0,0,.34-.05,1.1,1.1,0,0,1,.62-.15c1.57,0,4.63-2,4.63-3a.67.67,0,0,1,.11-.41,6.89,6.89,0,0,0,0-1.91.76.76,0,0,1,0-.26,6.4,6.4,0,0,0-1.6-1.6h-.22a17.55,17.55,0,0,0-2.6,0m11.6,0c0,.1-.17.22-.39.27-5.27,1.32-6.39,14-1.15,13,1.73-.32,4.38-2.91,4.38-4.29a.26.26,0,0,1,.25-.28.25.25,0,0,1,.25.25c0,.14-.08.25-.16.25s-.12.11-.07.24a.61.61,0,0,1,0,.46,1.21,1.21,0,0,0-.09.67c0,.26,0,.46-.11.46s0,1.72.26,2,.83.37,1.54-.06c1.65-1,2.52-2.08,1.24-1.55a1.16,1.16,0,0,1-.77.13c-.11-.06-.14,0-.07.08s0,.22-.79.28c-.44,0-.47,0-.38-.48.05-.29.14-1,.21-1.65s.19-1.12.28-1.12.11-.07,0-.2a.6.6,0,0,1,.09-.95c.16-.1.2-.18.08-.18s-.29-.84-.07-.84c.07,0,.1-.26.06-.58s0-.58.09-.58.13-.23.09-.5,0-.5.09-.5.14-.14.1-.3a11.15,11.15,0,0,1,.24-2c.37-2,.33-2.35-.23-1.75-.39.42-.86.59-.64.23.07-.12,0-.15-.08-.08a1.34,1.34,0,0,1-.8-.08,7.51,7.51,0,0,0-1.79-.19,3.52,3.52,0,0,1-1.38-.16c-.14-.12-.22-.12-.22,0m18.74.07a.47.47,0,0,1-.38.13c-.64-.07-1,0-1,.24s.45.52.73.45a.92.92,0,0,1,.42.08,2.09,2.09,0,0,0,.68.14c.52,0,.65.53.22.87-.16.14-.21.21-.1.15s.21.05.21.4-.06.51-.13.51-.1.26-.06.59,0,.58-.12.58-.14.1-.09.23a12.06,12.06,0,0,1-.18,2.21c-.16,1.09-.28,2.28-.29,2.64a2.38,2.38,0,0,1-.1.83,1.92,1.92,0,0,0-.05.71c0,.3,0,.55-.1.55s0,1.46.18,1.79,1,.23,1.72-.25c2.08-1.43,2.07-1.6,0-1l-.85.24v-1.14a3.33,3.33,0,0,1,.12-1.23c.08,0,.1-.23,0-.41a1.12,1.12,0,0,1,0-.63,2.24,2.24,0,0,0,.09-.83c0-.3,0-.54.11-.54s.12-.27.08-.59,0-.58.12-.58.15-.15.09-.38a15.27,15.27,0,0,1,.23-2.54c.28-1.92.34-3,.17-3.16a3.83,3.83,0,0,0-1.74-.06m9.93,0c0,.06-.18.11-.4.11-2.61,0-5.38,6.59-4.29,10.18,1.22,4,6.52,4,8.75,0,.29-.51.53-1,.54-1a2.88,2.88,0,0,1,.4-1.34c.06,0,.08-.19,0-.41s0-.42.07-.42.11-.35.08-.77,0-.74.12-.66.19-.13.19-.64-.08-.76-.17-.76-.16-.23-.16-.5a5.1,5.1,0,0,0-1.16-2.75c-.28-.26-.45-.55-.39-.66s0-.12,0-.06-.34,0-.59-.12-.5-.19-.55-.14-.18,0-.28,0a5.58,5.58,0,0,0-2.17-.07m25.22,0a.35.35,0,0,1-.36.07c-1.87-.42-3.78,2.94-2.57,4.53a1.69,1.69,0,0,1,.4.77c0,.09,0,.12.05.06a7,7,0,0,1,1.78.79,17.55,17.55,0,0,0,1.83.9c.85,0,2,1.33,2,2.33,0,1.23-1.57,2.93-2.41,2.61a.29.29,0,0,0-.34.07,6,6,0,0,1-2.82,0l-.73-.18.07-.94c0-.52.11-1.23.14-1.57.12-1.18-.37-.7-.81.79-.64,2.18-.16,2.78,2.31,2.89,3.27.14,5.43-1.31,5.43-3.63,0-1.49-.67-2.18-3.47-3.6-1.91-1-3-1.92-3-2.58,0-.91,1.22-2.47,1.77-2.26.13,0,.23,0,.23-.06a9.66,9.66,0,0,1,3.23.08c.28.12.3.26.2,1.6-.12,1.53.26,2.24.51,1,0-.28.15-.5.2-.5s.12-.25.14-.54.11-.57.19-.59.09-.3,0-.67a7.78,7.78,0,0,1-.18-.82c0-.11-.08-.16-.15-.12s-.34,0-.6-.14a1.34,1.34,0,0,0-.75-.16c-.16,0-.29,0-.29-.07a3.68,3.68,0,0,0-1.95,0m-63,.91a2.35,2.35,0,0,1,1.16,2c0,1.05-1.19,2.69-1.78,2.46-.13-.05-.19,0-.14.06s-1.2.73-1.41.6a.12.12,0,0,0-.19.06c-.06.15-.36.2-2.85.45-1,.1-1.13.08-1.13-.16s.07-.27.15-.27.12-.13.08-.29c-.28-1.11,2.07-5,2.67-4.43.06.06.1,0,.1-.06s.81-.59,1-.48a.44.44,0,0,0,.36-.08,2.54,2.54,0,0,1,2,.13m39.92-.07c.61.1,2.34,1.61,1.85,1.61a2.17,2.17,0,0,0,.16.78c.35,1.16.31,2.17-.18,4.89-.54,3-3.4,4.88-5.92,4-.92-.33-2.07-1.94-1.76-2.45a.19.19,0,0,0-.07-.26,3.11,3.11,0,0,1-.07-1.79,3.33,3.33,0,0,0,.14-1,1.65,1.65,0,0,1,.24-.95.14.14,0,0,0,.09-.22c-.6-1,2-4.37,3.45-4.56a1.69,1.69,0,0,0,.62-.17,1,1,0,0,1,.61,0l.84.15m-28.7,0a1.19,1.19,0,0,0,.56.15c1.34.11,2.31,1.34,1.36,1.72a.13.13,0,0,0-.05.2,7,7,0,0,1-.19,1.7c-.72,4-3.82,8.31-5.38,7.47-.24-.13-.35-.12-.41,0-.13.38-1-.25-1.45-1.05-.92-1.64-.41-6.11.91-8,.71-1.05,2.13-2.19,2.53-2a.27.27,0,0,0,.32-.08,3.23,3.23,0,0,1,1.8-.05"/><path id="path1" class="cls-2" d="M91,.08a8.3,8.3,0,0,0,1.41,0c.4,0,.08-.06-.7-.06s-1.1,0-.71.06m4,0a13.28,13.28,0,0,0,1.67,0c.43,0,0-.06-.88-.06s-1.27,0-.79.06M88.54.24a1.42,1.42,0,0,0,.58,0c.17,0,0-.08-.29-.08s-.45,0-.29.08m10.25,0a1.88,1.88,0,0,0,.67,0c.16,0,0-.07-.38-.07s-.49,0-.29.07m1.75.17a1.42,1.42,0,0,0,.58,0c.17,0,0-.08-.29-.08s-.45,0-.29.08m32.08.84c.58,0,1.52,0,2.09,0s.1-.06-1-.06-1.62,0-1,.06m10.6,0c.53,0,1.35,0,1.83,0s0-.06-1-.06-1.4,0-.86.06m24.32,0a8.69,8.69,0,0,0,1.25,0c.35,0,.07-.07-.62-.07s-1,0-.63.07m9,0c.53,0,1.39,0,1.92,0s.09-.06-1-.06-1.49,0-1,.06m-38.83.16a2.88,2.88,0,0,0,.83,0c.21,0,0-.07-.46-.07s-.62,0-.37.07m2,0a2.88,2.88,0,0,0,.83,0c.21,0,0-.07-.46-.07s-.62,0-.37.07m31,0a2.88,2.88,0,0,0,.83,0c.21,0,0-.07-.46-.07s-.62,0-.37.07m2.33,0a3.54,3.54,0,0,0,.92,0c.25,0,0-.07-.46-.07s-.71,0-.46.07m-59.41.83a1.82,1.82,0,0,0,.66,0c.16,0,0-.07-.37-.07s-.5,0-.29.07m15.67.34a4.18,4.18,0,0,0,1,0c.25,0,0-.07-.55-.07s-.75,0-.45.07m17.83,0a1.81,1.81,0,0,0,.66,0c.16,0,0-.07-.37-.07s-.5,0-.29.08m33.16,0a1.86,1.86,0,0,0,.67,0c.16,0,0-.07-.38-.07s-.49,0-.29.08m-88.08.83a9.38,9.38,0,0,0,1.5,0c.39,0,0-.06-.79-.06s-1.14,0-.71.06m84.29.13c-.23.13-.34.24-.25.24a1.9,1.9,0,0,0,.58-.24c.23-.13.34-.24.25-.24a1.9,1.9,0,0,0-.58.24M89,3.57a1.14,1.14,0,0,0,.58,0c.17,0,0-.07-.29-.07s-.45,0-.29.07m6.92,0a1.86,1.86,0,0,0,.67,0c.16,0,0-.07-.38-.07s-.5,0-.29.08M115,7.29c0,.32,0,.45.07.29a1.14,1.14,0,0,0,0-.58c0-.16-.07,0-.07.29m54.93,1c-.3.34-.52.71-.43.71a2.33,2.33,0,0,0,.43-.5c.41-.54.4-.68,0-.21m-6.58.8c-.2.23-.31.41-.24.41s.76-.65.67-.74-.24.11-.43.33m-27.82,2.66c0,1.65,0,2.3.05,1.45s0-2.2,0-3-.05-.1-.05,1.55m7,0c0,1.65,0,2.3.05,1.45s0-2.2,0-3-.05-.1-.05,1.55m-76-1.54-.49.54.54-.49a4.39,4.39,0,0,0,.55-.54c0-.13-.14,0-.6.49m48.32,1c0,.77,0,1.09.07.7a11.06,11.06,0,0,0,0-1.41c0-.39-.07-.07-.07.71m52.85-.74-.66.59.71-.54c.65-.49.81-.65.65-.65a5.78,5.78,0,0,0-.7.6m-7.32,1.77c-.83.85-1.32,1.39-1.1,1.21A21.91,21.91,0,0,0,162,10.63s-.75.69-1.57,1.53m-48,.13a3.35,3.35,0,0,0,.26.67c.11.17.13.12,0-.17a2.58,2.58,0,0,0-.27-.66c-.11-.18-.12-.13,0,.16m51.82,1.38c-.62.64-.7.77-.3.49s1.37-1.38,1.19-1.36a10.3,10.3,0,0,0-.89.87M114.72,16c0,.59,0,.84.07.54a4.87,4.87,0,0,0,0-1.08c0-.3-.07-.06-.07.54m41.44.61c-.77.8-1.15,1.23-.83.95a13.9,13.9,0,0,0,2.31-2.39s-.7.65-1.48,1.44m-43.11-.28c0,.6,0,.84.07.54a4.87,4.87,0,0,0,0-1.08c0-.3-.07-.05-.07.54m47.55.91a13,13,0,0,0-1.27,1.34,9.9,9.9,0,0,0,1.34-1.2C161.4,16.63,162,16,162,16s-.28.09-1.4,1.2m-98.86.11c-.14.28-.24.54-.2.58s.19-.2.34-.52c.35-.72.23-.77-.14-.06m90.43,3.4A10.67,10.67,0,0,0,151,22a13.86,13.86,0,0,0,1.32-1.25,10.67,10.67,0,0,0,1.16-1.25,15.38,15.38,0,0,0-1.32,1.25m2.28,2.5a32.43,32.43,0,0,0-2.32,2.41c.07,0,1.2-1.08,2.53-2.41S157,20.79,157,20.79s-1.19,1.09-2.53,2.42m-5.74,1.1a2.48,2.48,0,0,0-.7,1c0,.23,0,.23.11,0a4.72,4.72,0,0,1,.77-1c.87-.9.74-.92-.18,0m-42.09,1.44a6.61,6.61,0,0,0,1.09,0c.3,0,.05-.07-.54-.07s-.84,0-.55.07m6.68,0c1,0,2.45,0,3.33,0s.12-.05-1.71-.05-2.56,0-1.62.05m8.82,0a6.61,6.61,0,0,0,1.09,0c.3,0,.05-.07-.54-.07s-.84,0-.55.07m-18.74.16a2.88,2.88,0,0,0,.83,0c.21,0,0-.07-.46-.07s-.63,0-.37.07m22.16,0a3,3,0,0,0,.84,0c.2,0,0-.07-.46-.07s-.63,0-.38.07m-24.75.17a2.36,2.36,0,0,0,.75,0c.21,0,0-.08-.37-.08s-.58,0-.38.08m27.5,0a1.86,1.86,0,0,0,.67,0c.16,0,0-.07-.38-.07s-.49,0-.29.08m-29.5.16a1.88,1.88,0,0,0,.67,0c.16,0,0-.07-.38-.07s-.49,0-.29.07m31.67,0a1.88,1.88,0,0,0,.67,0c.16,0,0-.07-.38-.07s-.5,0-.29.07m-33.59.17a1.47,1.47,0,0,0,.59,0c.16-.05,0-.08-.29-.08s-.45,0-.3.08m35.5,0a1.47,1.47,0,0,0,.59,0c.16-.05,0-.08-.29-.08s-.45,0-.3.08m-37.16.16a1.14,1.14,0,0,0,.58,0c.16,0,0-.07-.29-.07s-.45,0-.29.07m38.83,0a1.14,1.14,0,0,0,.58,0c.17,0,0-.07-.29-.07s-.45,0-.29.07M66,27.9c0,.29-.11.57-.23.61s-.16.09,0,.1.41-.35.32-.85c-.06-.3-.08-.27-.1.14m-7.69,2.31c0,.23.07.42.15.42s.1-.19.06-.42a.9.9,0,0,0-.14-.42s-.07.19-.07.42m35.38,5.87c.53,0,1.39,0,1.91,0s.1-.06-1-.06-1.49,0-1,.06m15.09,0c.57,0,1.48,0,2,0s0-.06-1-.06-1.53,0-1,.06m-19.68.17a7.61,7.61,0,0,0,1.17,0c.34,0,.1-.07-.54-.07s-.92,0-.63.07m25.33,0a7.61,7.61,0,0,0,1.17,0c.35,0,.1-.07-.54-.07s-.92,0-.63.07m-28.58.16a3.54,3.54,0,0,0,.92,0c.25,0,0-.07-.46-.07s-.71,0-.46.07m32.43,0a4.18,4.18,0,0,0,1,0c.25,0,0-.07-.55-.07s-.75,0-.45.07m-35,.17a2.36,2.36,0,0,0,.75,0c.21,0,0-.08-.37-.08s-.58,0-.38.08m38.09,0a2.88,2.88,0,0,0,.83,0c.21,0,0-.08-.46-.07s-.63,0-.37.07m-40.51.16a1.47,1.47,0,0,0,.59,0c.16,0,0-.08-.29-.08s-.45,0-.3.08m43.17,0a3,3,0,0,0,.84,0c.2,0,0-.07-.46-.07s-.63,0-.38.07m-45.17.17a1.47,1.47,0,0,0,.59,0c.16,0,0-.08-.29-.08s-.45,0-.3.08m47.67,0a1.42,1.42,0,0,0,.58,0c.17,0,0-.08-.29-.08s-.45,0-.29.08m-51.33.16a1.14,1.14,0,0,0,.58,0c.16,0,0-.07-.29-.07s-.45,0-.29.07m55.75,0a1.86,1.86,0,0,0,.67,0c.16,0,0-.07-.38-.07s-.5,0-.29.08m-57.42.16a1.42,1.42,0,0,0,.58,0c.17,0,0-.08-.29-.08s-.45,0-.29.08m59.25,0a1.88,1.88,0,0,0,.67,0c.16,0,0-.07-.38-.07s-.49,0-.29.07m2,.17a1.88,1.88,0,0,0,.67,0c.16,0,0-.08-.38-.08s-.49,0-.29.08M44.5,38c-.23.13-.34.24-.25.24a1.8,1.8,0,0,0,.58-.24c.23-.13.34-.24.25-.24a1.9,1.9,0,0,0-.58.24m98.75.09c-.06.09.09.16.36.16s.42,0,.22-.16-.45-.21-.58,0m5.25.87a2.54,2.54,0,0,0,.54.46c.34.24.45.28.31.1s-.85-.68-.85-.56m10,.67s.3.23.57.46.44.34.2,0-.25-.37-.08-.44,0-.09-.27-.1-.45,0-.42,0m-8.51.84a4,4,0,0,0,.54.54l.54.49-.49-.54c-.45-.5-.59-.62-.59-.49m9.5.16a2.91,2.91,0,0,0,.54.46c.34.24.45.28.31.1s-.85-.69-.85-.56M36,41.55c-.65.35-.57.48.08.14s.74-.4.53-.39a2.46,2.46,0,0,0-.61.25M151.33,42a4.76,4.76,0,0,0,.54.54l.55.49-.49-.54c-.46-.5-.6-.62-.6-.49m-91.66.87c0,.22.06.41.14.41s.11-.19.06-.41-.1-.42-.14-.42a.83.83,0,0,0-.06.42m135.08,0a3.79,3.79,0,0,0,.67.43l.33.17-.33-.27a4.8,4.8,0,0,0-.67-.44l-.33-.16.33.27M31,43.89c-.62.34-.59.48,0,.15.28-.14.5-.29.5-.34s0-.1-.54.19m122.54.49a3.4,3.4,0,0,0,.65.58s-.17-.26-.48-.58a3.57,3.57,0,0,0-.65-.59c-.05,0,.17.26.48.59m9.18-.51c.67.72,6.14,6.19,7,7,.66.62-.63-.72-2.88-3s-4.11-4.12-4.15-4.12,0,0,0,.08m34.06.26c0,.18.09.33.21.33s.22-.07.22-.15A.58.58,0,0,0,197,44c-.16-.14-.21-.1-.21.14M28.79,45c-.36.2-.38.48,0,.48a.27.27,0,0,0,.25-.29c0-.25,0-.26.16-.05s.2.2.25.15c.21-.2-.33-.45-.62-.29m126.54,1.4A3.76,3.76,0,0,0,156,47c.05,0-.17-.26-.48-.58a3.24,3.24,0,0,0-.65-.59,2.39,2.39,0,0,0,.48.59m-12.76,3.91c0,1.33,0,1.87.05,1.21s0-1.75,0-2.42-.05-.12-.05,1.21m15-1.5a6,6,0,0,0,.72.67c.14,0-1.06-1.31-1.21-1.32s.14.29.49.65m-22,1.84c0,1.32,0,1.87.05,1.2s0-1.75,0-2.41-.05-.12-.05,1.21m-20.61-1c.21.08.37.24.37.35s0,.15.11.09-.28-.61-.58-.6-.16.06.1.16m45.87,2.55c.6.61,1.11,1.11,1.14,1.11a7.59,7.59,0,0,0-1.59-1.73c-.4-.31-.23-.08.45.62m11.16.89a4,4,0,0,0,.73.7c.2.14.06-.06-.3-.45-.77-.8-.94-.9-.43-.25m-95.7,1.57c.2.21.41.34.46.29s-.11-.22-.37-.39l-.46-.29.37.39m-9.21,1a9.71,9.71,0,0,0,1.08,1,7.39,7.39,0,0,0-.91-1,10.14,10.14,0,0,0-1.07-1,6.85,6.85,0,0,0,.9,1m75.64-.09c0,.55,0,.76.07.46a4.77,4.77,0,0,0,0-1c0-.25-.07,0-.07.54m31-.87s.3.23.57.46l.5.41-.4-.46a1.51,1.51,0,0,0-.57-.45c-.09,0-.14,0-.1,0m-38.3,1.12c0,.51,0,.71.07.46a3.54,3.54,0,0,0,0-.92c0-.25-.07,0-.07.46m-24.69,2.08a3.12,3.12,0,0,0-.61.76,6.35,6.35,0,0,0,1.36-1.45,3.34,3.34,0,0,0-.75.69m24.52.26c0,.32,0,.45.07.29a1.47,1.47,0,0,0,0-.59c0-.16-.07,0-.07.3m7.66,0c0,.32,0,.45.08.29a1.47,1.47,0,0,0,0-.59c0-.16-.08,0-.08.3m24.45.47a2,2,0,0,0,.46.54c.2.17.18.08-.09-.31-.41-.58-.63-.73-.37-.23M72.17,59.69a2,2,0,0,0,.5.44c.27.19.5.31.5.27a1.81,1.81,0,0,0-.5-.44c-.28-.2-.5-.32-.5-.27m2.41,1.52a4.8,4.8,0,0,0,.67.44l.33.16-.33-.27a3.86,3.86,0,0,0-.67-.44l-.33-.16.33.27m107.5.17c.38.31,2.09,1.2,1.84,1a10.14,10.14,0,0,0-1.17-.69c-.55-.3-.85-.42-.67-.27m-82,.53a1.42,1.42,0,0,0,.58,0c.17,0,0-.08-.29-.08s-.45,0-.29.08m-4.75.17c.67,0,1.75,0,2.42,0S97.83,62,96.5,62s-1.87,0-1.21.06m38.2.67-.41.46.5-.42.57-.46s0,0-.09,0a1.5,1.5,0,0,0-.57.46m5.18,1.87c0,.09.26.15.59.14s.51-.07.37-.16c-.3-.19-1-.18-1,0m-3.21.13a4.74,4.74,0,0,0,1,0c.25,0,0-.06-.54-.06s-.76,0-.46.07m6.33,0a7.48,7.48,0,0,0,1.16,0c.35,0,.11-.07-.53-.07s-.93,0-.63.07m37.92,0a3.54,3.54,0,0,0,.92,0c.25,0,0-.06-.46-.06s-.71,0-.46.06m-87,1.17a1.42,1.42,0,0,0,.58,0c.16,0,0-.08-.29-.08s-.45,0-.29.08m7.42,0a1.82,1.82,0,0,0,.66,0c.16,0,0-.08-.37-.08s-.5,0-.29.08M137.3,86.75a4.74,4.74,0,0,0,1,0c.25,0,0-.06-.55-.06s-.75,0-.45.07m2.5,0a4.74,4.74,0,0,0,1,0c.25,0,0-.06-.55-.06s-.75,0-.45.07M.71,87.25a8.69,8.69,0,0,0,1.25,0c.34,0,.06-.07-.63-.07s-1,0-.62.07m5.41,0a7.61,7.61,0,0,0,1.17,0c.34,0,.1-.07-.54-.07s-.92,0-.63.07M148,89.63c0,.32,0,.45.07.29a1.18,1.18,0,0,0,0-.59c0-.16-.07,0-.07.3M5.56,91c0,.78,0,1.1.06.71a8.42,8.42,0,0,0,0-1.42c0-.39-.06-.07-.06.71M2.41,97.63c0,4.26,0,6,0,3.87s0-5.62,0-7.75,0-.39,0,3.88m145.48-4.42c0,.55,0,.75.06.45a4.18,4.18,0,0,0,0-1c0-.25-.07,0-.06.55m-23,1.67c-.28.62-.22.75.08.19.14-.26.22-.51.18-.54s-.15.12-.26.35M28.17,96.42l.08,1.29.05-1.15a3.78,3.78,0,0,0-.08-1.29c-.08-.07-.1.45,0,1.15m50.4-1a.8.8,0,0,1,.26.44c0,.1,0,.14.1.09s-.24-.79-.45-.79,0,.11.09.26m82.22-.15a1.88,1.88,0,0,0,.67,0c.16,0,0-.07-.38-.07s-.49,0-.29.07m1.42,0a1.42,1.42,0,0,0,.58,0c.16,0,0-.08-.29-.08s-.45,0-.29.08m-129.5.17a1.42,1.42,0,0,0,.58,0c.16,0,0-.08-.29-.08s-.45,0-.29.08m15.68.14a.4.4,0,0,0,0,.36c.05.06.1,0,.1-.17s.21-.28,1-.33l1-.06-1,0c-.73,0-1,0-1.06.23m4.82-.14a2.88,2.88,0,0,0,.83,0c.21,0,0-.07-.46-.07s-.62,0-.37.07m8.59,0a4.18,4.18,0,0,0,1,0c.25,0,0-.07-.55-.07s-.75,0-.45.07m4.69,0c.38,0,.69.17.73.31s.07.14,0,0-.18-.3-.73-.31l-.71,0,.66.07m23.55,0a3.54,3.54,0,0,0,.92,0c.25,0,0-.07-.46-.07s-.71,0-.46.07m4.08,0a2.36,2.36,0,0,0,.75,0c.21,0,0-.07-.37-.07s-.58,0-.38.07m6.15,0c0,.08.18.11.49.07a1.57,1.57,0,0,0,.57-.13c0-.13-1-.07-1.06.06m4.09,0c.5,0,.81.16.86.31s.07.14,0,0-.19-.3-.85-.31l-.84,0,.78.07m71.52,0a3.47,3.47,0,0,0,.91,0c.25,0,.05-.07-.46-.07s-.71,0-.45.07m4.16,0a3,3,0,0,0,.84,0c.2,0,0-.07-.46-.07s-.63,0-.38.07m8.75,0a4.17,4.17,0,0,0,1,0c.25,0,0-.07-.54-.07s-.75,0-.46.07m4.17,0a2.36,2.36,0,0,0,.75,0c.2,0,0-.07-.38-.07s-.58,0-.37.07m6.1.14a.4.4,0,0,0,0,.36c.06.06.11,0,.11-.17s.21-.28,1-.33l1-.06-1,0c-.74,0-1,0-1.06.23m29.48-.14a3,3,0,0,0,.84,0c.2,0,0-.07-.46-.07s-.63,0-.38.07m3.75,0a2.36,2.36,0,0,0,.75,0c.21,0,0-.07-.37-.07s-.58,0-.38.07m-187.81.2a.36.36,0,0,1,.12.46c-.09.23-.07.26.08.11s.09-.72-.22-.72-.15,0,0,.15m113,.28c-.65.35-.57.47.08.13s.74-.4.53-.39a2.63,2.63,0,0,0-.61.26m8.37,0a1.83,1.83,0,0,0,.59.23c.09,0,0-.1-.25-.23a1.69,1.69,0,0,0-.59-.24c-.09,0,0,.1.25.24m49.63-.16c-.07.07-.12,3.81-.11,8.31,0,5.42.07,7.88.17,7.28.18-1.06.12-15.77-.06-15.59M100.4,96a.5.5,0,0,1,.21.52c-.06.16,0,.23.06.17.29-.18.18-.57-.21-.75s-.36-.17-.06.06m63.85.64c.18.1.54.33.79.5s.46.28.46.23a4.5,4.5,0,0,0-1.41-.93c-.1,0,0,.09.16.2m39.12,3.51,0,3.71.05-3.62,0-3.62,1.7-.06,1.71,0-1.79,0-1.8,0,0,3.71m14.27-3.25a3.44,3.44,0,0,0,.57.65c.1.06,0-.12-.18-.41a3,3,0,0,0-.57-.64c-.11-.07,0,.11.18.4M21.58,103.63c0,3.89,0,5.48.05,3.54s0-5.14,0-7.09-.05-.35-.05,3.55m187.63-6.25c0,.36,0,.49.08.28a2.07,2.07,0,0,0,0-.66c0-.16-.07,0-.07.38M50.41,104c0,3.89,0,5.49.05,3.54s0-5.14,0-7.08-.05-.36-.05,3.54m2.3-6.42c0,.37,0,.5.07.29a1.67,1.67,0,0,0,0-.67c0-.15-.07,0-.07.38m102.12.21-.58.63.62-.58c.59-.53.71-.67.58-.67a5.2,5.2,0,0,0-.62.62m13.5-.47a2.75,2.75,0,0,0,.67.66,3.1,3.1,0,0,0,.67.47,5.51,5.51,0,0,0-.67-.66c-.37-.33-.67-.54-.67-.47m9.08,6.1c0,3.39,0,4.75.05,3s0-4.5,0-6.17-.05-.26-.05,3.14m-11.12-5.25a2.9,2.9,0,0,0,.74.66c.07,0-.16-.3-.51-.66a4.39,4.39,0,0,0-.74-.67c-.05,0,.18.3.51.67m26.15,0c-.15.75-.1,11.81.06,12.31.07.23.14-2.57.14-6.21,0-6.6,0-7.1-.2-6.1m-65.23.23c0,.36,0,.49.07.28a1.63,1.63,0,0,0,0-.66c0-.16-.07,0-.07.38m103,1.66c0,1.1,0,1.53.06.95s0-1.47,0-2-.06,0-.06,1.05M99.78,99.5c-.56.57-.84.89-.61.71a12.21,12.21,0,0,0,1.74-1.75,10.06,10.06,0,0,0-1.13,1m119.22-1a4.05,4.05,0,0,0,.71.63c.39.3.6.42.47.26-.26-.33-1.18-1-1.18-.89M65.58,104.38c0,3,0,4.28,0,2.8s0-4,0-5.5,0-.33,0,2.7m31.62-4a10.14,10.14,0,0,0-1.12,1.25,20.44,20.44,0,0,0,2.15-2.13c.67-.79.12-.32-1,.88M216.72,100c0,.55,0,.76.07.46a5.56,5.56,0,0,0,0-1c0-.25-.07,0-.07.54m4.63.92a2.71,2.71,0,0,0,.67.67c.07,0-.15-.3-.48-.67a4.25,4.25,0,0,0-.66-.67,3.63,3.63,0,0,0,.47.67m-94.14.5c0,.32,0,.45.07.29a1.42,1.42,0,0,0,0-.58c0-.16-.07,0-.07.29m91.64.1c.22.29.43.49.47.45s-.13-.27-.4-.51l-.47-.46.4.52M93.7,102.75c0,1.43.06,1.63.45,1,.21-.34.21-.35,0-.15s-.28.1-.33-1l-.06-1.22,0,1.37m30.17-.79c0,.32,0,.45.08.29a1.42,1.42,0,0,0,0-.58c0-.16-.08,0-.08.29m96,.72a4.39,4.39,0,0,0,.55.54l.54.49-.49-.54c-.46-.51-.6-.62-.6-.49m3.67.53a3.4,3.4,0,0,0,.65.58s-.17-.26-.48-.58a3.76,3.76,0,0,0-.65-.58c-.05,0,.17.26.48.58m-15.14.09c-.52.43-.29.42.26,0,.23-.18.36-.33.28-.33a1.73,1.73,0,0,0-.54.34m8.53,1.49c0,.87,0,1.23.07.79a13.88,13.88,0,0,0,0-1.58c0-.44-.07-.08-.07.79m-121.39-1a.78.78,0,0,0,.58.53c.09,0,0-.09-.13-.18s-.25-.24-.19-.33,0-.15-.08-.15-.18.06-.18.13m58.87.37c0,.32,0,.45.08.29a1.47,1.47,0,0,0,0-.59c0-.16-.08,0-.08.3m14.51.08c0,.37,0,.5.07.29a1.88,1.88,0,0,0,0-.67c0-.16-.08,0-.07.38m-17,.67c0,.55,0,.75.06.45a4.18,4.18,0,0,0,0-1c0-.25-.07,0-.06.55m-96.6-.46c1.49,0,3.93,0,5.42,0s.27,0-2.71,0-4.2,0-2.71,0m127,0c1.5,0,3.9,0,5.34,0s.21,0-2.72,0-4.11,0-2.62,0m39.62.54a4.53,4.53,0,0,0,.73.67s-.21-.3-.57-.67a4.53,4.53,0,0,0-.73-.67s.21.3.57.67m3.41.25a3.76,3.76,0,0,0,.65.58c.05,0-.17-.26-.48-.58a3.4,3.4,0,0,0-.65-.58s.17.26.48.58m-131.6,1.08c0,.87,0,1.23.06.79a13.88,13.88,0,0,0,0-1.58c0-.44-.06-.08-.06.79m109.64,2.13,0,3.62.05-3.53,0-3.54,1.28,0,1.29-.06-1.37,0-1.38,0,0,3.63m5.51-2.88c0,.37,0,.5.07.29a1.88,1.88,0,0,0,0-.67c0-.15-.08,0-.07.38m21.52,1.25c0,1.06,0,1.49.06,1s0-1.39,0-1.92-.06-.09-.06,1m-61.52-.66c0,.41,0,.58.07.37a2.36,2.36,0,0,0,0-.75c0-.21-.07,0-.07.38m-73.71.3a1.07,1.07,0,0,0,.36.46l.36.32-.3-.46c-.3-.47-.42-.56-.42-.32m128.75.7a8.16,8.16,0,0,0,.9.83,4,4,0,0,0-.74-.83,6.9,6.9,0,0,0-.9-.84,4.69,4.69,0,0,0,.74.84M227,107a3.64,3.64,0,0,0,.65.59s-.17-.27-.48-.59a3.76,3.76,0,0,0-.65-.58c-.05,0,.17.26.48.58m-151.84.27c-.1.19-.15.38-.1.43s.13-.08.19-.27.25-.34,3-.39l2.86,0-2.86,0c-2.76,0-2.88,0-3.06.31m25.28,1.61c.94.94,1.75,1.71,1.8,1.71a37.14,37.14,0,0,0-3.16-3.17,9.92,9.92,0,0,0,1.36,1.46m54.32-1.29a2.92,2.92,0,0,0,.27.66c.11.18.12.12,0-.16a3.35,3.35,0,0,0-.26-.67c-.11-.18-.12-.12-.05.17m-58.3.25a2.8,2.8,0,0,0,.57.66c.37.32.37.32,0-.17-.66-.8-.72-.85-.54-.49m51,.09a.78.78,0,0,0-.11.54c.06.13.09.12.1,0a1,1,0,0,1,.29-.54c.15-.17.19-.3.08-.3s-.26.15-.36.34M5.56,109.21c0,.82,0,1.18.06.8a9.39,9.39,0,0,0,0-1.5c0-.44-.06-.13-.06.7m195.5.83c0,1.1,0,1.53.06.95a16.68,16.68,0,0,0,0-2c0-.52-.06,0-.06,1.05m27.44-1.33a3.4,3.4,0,0,0,.65.58s-.17-.26-.48-.58a3.76,3.76,0,0,0-.65-.58c-.05,0,.17.26.48.58m-98.24,0a4.5,4.5,0,0,0,.87.86l.79.64-.83-.86c-.89-.93-1-1-.83-.64m-46.42,0a1.9,1.9,0,0,0,.24.58c.14.23.24.34.24.25a1.66,1.66,0,0,0-.24-.58c-.13-.23-.24-.34-.24-.25m84.52.34c-.28.61-.22.74.08.19.14-.26.22-.51.18-.55s-.15.13-.26.36m48.7,1.08c0,.77,0,1.09.06.7a8.3,8.3,0,0,0,0-1.41c0-.39-.06-.07-.06.71m10.27.55c1,1,1.78,1.78,1.82,1.78a35.67,35.67,0,0,0-2.9-3c-.37-.32.12.22,1.08,1.2M2.22,110.46c0,.5,0,.71.07.46a4.71,4.71,0,0,0,0-.92c0-.25-.07,0-.07.46m30.65-.07c-.2.31-.34.57-.3.57a2.94,2.94,0,0,0,.74-1.08s-.23.19-.44.51m65.89-.1a25.4,25.4,0,0,0,2.48,2.5,16.54,16.54,0,0,0-2-2.16c-.42-.42-.61-.57-.43-.34m28.41-.28a4,4,0,0,0,.54.54l.54.49-.49-.54c-.45-.5-.59-.62-.59-.49m-74.45,1.37c0,.55,0,.75.07.45a4.77,4.77,0,0,0,0-1c0-.25-.07,0-.07.55m-33.55.08c0,.65,0,.84.16.67a1.41,1.41,0,0,0,0-1.34c-.11-.18-.16,0-.16.67m137.68-.18a2.24,2.24,0,0,0,.63.6c.15.05,0-.17-.3-.49-.7-.73-.81-.76-.33-.11m33.36.26c0,.37,0,.5.08.29a2.12,2.12,0,0,0,0-.67c0-.15-.07,0-.07.38M72,111.88c-.15.32-.24.58-.2.58a2.47,2.47,0,0,0,.54-1.1s-.19.2-.34.52m19.39,0c0,.38.06.6.16.54s.21-.6,0-.92-.16-.09-.16.38m12-.15a1.55,1.55,0,0,0,.56.44c.23,0-.2-.49-.62-.7s-.3-.14.06.26M63.21,112c0,.32,0,.45.07.29a1.42,1.42,0,0,0,0-.58c0-.16-.07,0-.07.29m91.38.08c.25.32.53.59.63.59s-.08-.27-.39-.59a4.89,4.89,0,0,0-.62-.58,2.55,2.55,0,0,0,.38.58m25.12,0c0,.37,0,.5.08.29a2.12,2.12,0,0,0,0-.67c0-.15-.07,0-.07.38m37.47.43a1,1,0,0,0,.25.58c.25.32.25.32.1,0s-.19-.44-.24-.58-.1-.22-.11,0m-198,.46a1.07,1.07,0,0,1-.34.53c-.18.18-.26.33-.17.33s.75-.81.61-1-.1,0-.1.09m170.62.4-.29.55.33-.4c.29-.33.44-.69.3-.69a2.64,2.64,0,0,0-.34.54m40.37.18a9,9,0,0,0,.79.78c.17,0-.26-.51-.84-1l-.69-.58.74.79m-194.53-.43c1.12,0,3,0,4.08,0s.2,0-2,0-3.17,0-2,0m169.92.17a12.51,12.51,0,0,0,1.5,0c.38,0,0-.07-.8-.07s-1.14,0-.7.07m-43.75.33a4.18,4.18,0,0,0,1,0c.25,0,0-.07-.55-.07s-.75,0-.45.07m-154.13.11a1.63,1.63,0,0,0,.66.13c.37,0,.67,0,.67-.07s-.3-.12-.67-.12a1.71,1.71,0,0,0-.66.06m16,.22c.21,0,.33.14.28.23s0,.15.09.15c.38,0,.05-.42-.35-.43s-.37,0,0,0m30.92,0c.27,0,.41.14.34.25s0,.14.09.06c.31-.19,0-.43-.45-.4l-.45,0,.47.07m7.06,0a.49.49,0,0,0-.11.29c0,.13,0,.12.13,0a.83.83,0,0,1,.45-.28c.33-.08.33-.08,0-.1a.77.77,0,0,0-.46.09m5.6,0a1.42,1.42,0,0,0,.58,0c.16,0,0-.08-.29-.08s-.45,0-.29.08m15.67,0c0,.17.31.25.88.27h.82l-.74-.07a1.79,1.79,0,0,1-.89-.26c-.1-.14-.12-.12-.07,0m92.71,0a.2.2,0,0,0,.1.27c.12.08.15,0,.08-.06s0-.21.27-.25c.37-.07.37-.07,0-.1a.56.56,0,0,0-.46.14m18.87,0c.21,0,.34.14.28.23s0,.15.1.15c.38,0,0-.42-.35-.43s-.38,0,0,0m-190.83.33a2.36,2.36,0,0,0,.75,0c.2,0,0-.07-.38-.07s-.58,0-.37.07m16.58,0a2.88,2.88,0,0,0,.83,0c.21,0,0-.07-.46-.07s-.62,0-.37.07m11.84,0c.71,0,1.84,0,2.5,0s.08-.06-1.3-.06-1.92,0-1.2.06m19.16,0a2.88,2.88,0,0,0,.83,0c.21,0,0-.07-.46-.07s-.62,0-.37.07m12.83,0a3.54,3.54,0,0,0,.92,0c.25,0,0-.06-.46-.06s-.71,0-.46.06m8,0a3,3,0,0,0,.84,0c.2,0,0-.07-.46-.07s-.63,0-.38.07m20.17,0a3.47,3.47,0,0,0,.91,0c.26,0,0-.06-.45-.06s-.71,0-.46.06m85.83,0a3.54,3.54,0,0,0,.92,0c.25,0,0-.06-.46-.06s-.71,0-.46.06m13,0a3,3,0,0,0,.84,0c.2,0,0-.07-.46-.07s-.63,0-.38.07m10.92,0a4.74,4.74,0,0,0,1,0c.25,0,0-.06-.54-.06s-.76,0-.46.07m14,0a2.36,2.36,0,0,0,.75,0c.2,0,0-.07-.38-.07s-.58,0-.37.07m-173.91.17a9.38,9.38,0,0,0,1.5,0c.38,0,0-.06-.8-.06s-1.14,0-.7.06m164.25,0a19,19,0,0,0,2,0c.52,0,0,0-1.05,0s-1.53,0-.95.06m-45,.32a1.88,1.88,0,0,0,.67,0c.16,0,0-.07-.38-.07s-.49,0-.29.07m-22,.18a19,19,0,0,0,2,0c.52,0,0,0-1.05,0s-1.53,0-.95.06M54.91,132.64c-.15.28-.24.55-.2.58s.19-.19.34-.51c.34-.72.23-.78-.14-.07m85.09,3a.87.87,0,0,1-.26.44c-.15.14-.19.26-.09.26s.58-.66.45-.79-.1,0-.1.09m-78.83.52.91.1.1.83.1.84,0-.76c0-1-.18-1.17-1.22-1.13l-.84,0,.92.1m13.71,0a2.88,2.88,0,0,0,.83,0c.21,0,0-.08-.46-.07s-.63,0-.37.07m24.16,0a1.14,1.14,0,0,0,.58,0c.17,0,0-.07-.29-.07s-.45,0-.29.07m6.5,0a3,3,0,0,0,.84,0c.2,0,0-.08-.46-.07s-.63,0-.38.07m12.67,0a1.14,1.14,0,0,0,.58,0c.16,0,0-.07-.29-.07s-.45,0-.29.07m30.5,0a2.88,2.88,0,0,0,.83,0c.21,0,0-.08-.46-.07s-.62,0-.37.07m9.92,0a4.18,4.18,0,0,0,1,0c.25,0,0-.07-.55-.07s-.75,0-.45.07m8.75,0a2.88,2.88,0,0,0,.83,0c.21,0,0-.08-.46-.07s-.63,0-.37.07m16.41,0a2.36,2.36,0,0,0,.75,0c.21,0,0-.08-.37-.08s-.58,0-.38.08m-9,.24a6.54,6.54,0,0,1,.67.45c.19.15.14.07-.12-.19a1.62,1.62,0,0,0-.68-.45c-.11,0-.05.09.13.19m-29.95.47c0,.28.1.5.14.5a1.13,1.13,0,0,0,.06-.5c0-.27-.06-.5-.14-.5s-.1.23-.06.5m1.64-.39c-.24.25-.11.89.18.88s.21-.05.09-.1a.43.43,0,0,1,.08-.77c.24-.06.24-.08,0-.1a.6.6,0,0,0-.38.09m-43.22.39q0,.42.36.45c.24,0,.26,0,.06-.05a.62.62,0,0,1-.36-.45c-.07-.31-.08-.3-.06,0M78,136.8c-.24.15-.73.83-.59.83a4.27,4.27,0,0,0,.52-.5c.51-.54.52-.59.07-.33m34.16.16a.82.82,0,0,1-.14.62c-.21.27-.2.27.06.07s.39-.78.14-.93c-.08-.05-.11.06-.06.24m52.73,0c0,.25.08.37.27.37s.23,0,.11-.13a.91.91,0,0,1-.28-.37c-.06-.17-.09-.12-.1.13m-63,.41c.08.46.1.48.16.15a.81.81,0,0,0-.09-.55c-.1-.09-.12.07-.07.4m53.52.25-.58.63.62-.58c.59-.53.71-.67.58-.67a5.2,5.2,0,0,0-.62.62M98,137.24a3,3,0,0,0,.84,0c.2,0,0-.07-.46-.07s-.63,0-.38.07m16.87.43-.49.54.54-.49c.5-.46.62-.59.49-.59a4,4,0,0,0-.54.54m3.71-.43a2.36,2.36,0,0,0,.75,0c.21,0,0-.07-.37-.07s-.58,0-.38.07m51.71.51-.58.63.62-.58c.59-.53.71-.67.58-.67a5.2,5.2,0,0,0-.62.62m-43.78,0c-.21.21-.31.39-.24.39s.77-.65.67-.72-.23.12-.43.33m3.49-.33a3,3,0,0,0,.84,0c.2,0,0-.07-.46-.07s-.63,0-.38.07m-29.66.63c0,.37,0,.5.07.29a1.88,1.88,0,0,0,0-.67c0-.15-.08,0-.07.38m66.65-.48a.62.62,0,0,1,.36.45c.07.31.08.3.05,0s-.13-.43-.36-.45-.25,0-.05.05m-59.39.36c-.32.37-.52.71-.41.71a2.25,2.25,0,0,0,.44-.5c.39-.55.36-.68,0-.21m78.33.29a1.66,1.66,0,0,0,.13.58,1.24,1.24,0,0,0,.07-.58c0-.32-.06-.58-.14-.58s-.1.26-.06.58m-14.89.25c-.26.27-.44.53-.39.57s.28-.18.53-.5c.57-.7.5-.74-.14-.07m-96.24,0c0,.3,0,.33.16.13s.21-.5,0-.5-.17.16-.16.37m33.4.33-.49.55.54-.49c.51-.46.62-.6.49-.6a4.76,4.76,0,0,0-.54.54m14.14.3c0,.5,0,.71.07.45a3.47,3.47,0,0,0,0-.91c0-.26-.07,0-.07.46m-1.34.16c0,.32,0,.45.07.29a1.14,1.14,0,0,0,0-.58c0-.16-.07,0-.07.29m4.23.27c-.39.83-.27.86.18.05.19-.36.3-.65.23-.65a1.53,1.53,0,0,0-.41.6M76,139.72c0,.68.08.69.2,0,0-.25,0-.49-.06-.54s-.14.18-.14.51m.89.41c-.14.27-.22.5-.18.5s.2-.23.34-.5.23-.5.18-.5-.2.22-.34.5m109,0c0,.32,0,.45.08.29a1.47,1.47,0,0,0,0-.59c0-.16-.08,0-.08.3M100.24,140a2.53,2.53,0,0,1,.09.38c0,.2.82,0,.9-.2.16-.4.11-.51-.08-.19a.54.54,0,0,1-.35.29.76.76,0,0,1-.42-.29c-.23-.28-.24-.28-.14,0m74.47.28c0,.32,0,.45.07.29a1.42,1.42,0,0,0,0-.58c0-.16-.07,0-.07.29m-6.27,0c-.17.17-.12.58.06.47a.18.18,0,0,0,.08-.25c0-.08,0-.18.13-.22s.13-.09,0-.1a.45.45,0,0,0-.3.1m12.63.2a1.42,1.42,0,0,0,.46.37c.25.13.31.13.23,0a1.42,1.42,0,0,0-.46-.37c-.24-.13-.31-.13-.23,0m-18.86.85c0,.41,0,.58.07.38a2.36,2.36,0,0,0,0-.75c0-.21-.07,0-.07.37m18.9.68c.21.25,1.22.89,1.22.77a3.9,3.9,0,0,0-.7-.54c-.39-.25-.62-.36-.52-.23M183,143a4,4,0,0,0,1.16.53,3.07,3.07,0,0,0-1.11-.59c-.06,0-.08,0-.05.06m-91,.61c0,.32,0,.45.07.29a1.18,1.18,0,0,0,0-.59c0-.16-.07,0-.07.3M124.23,145c0,.87,0,1.23.06.79a13.88,13.88,0,0,0,0-1.58c0-.44-.06-.08-.06.79m-31-.25c0,.55,0,.75.07.45a4.77,4.77,0,0,0,0-1c0-.25-.07,0-.07.55m20.66.08c0,.41,0,.58.07.38a2.36,2.36,0,0,0,0-.75c0-.21-.07,0-.07.37m11.5.17c0,.5,0,.71.07.46a3.54,3.54,0,0,0,0-.92c0-.25-.07-.05-.07.46m6.2-.33c-.14.27-.22.5-.17.5a1.57,1.57,0,0,0,.34-.5c.14-.28.22-.5.18-.5s-.2.22-.35.5M60,145.29c0,.32,0,.45.07.29a1.14,1.14,0,0,0,0-.58c0-.16-.07,0-.07.29m7.32.19a.84.84,0,0,0-.06.56c0,.08.15-.06.23-.33.16-.6,0-.78-.17-.23m64.87-.09c-.06.18-.15.37-.18.44s0,.13.09.13.4-.69.27-.81-.12.07-.18.24m55.15.4c0,.41,0,.58.07.38a2.36,2.36,0,0,0,0-.75c0-.21-.07,0-.07.37m-1.17.09c0,.36,0,.49.08.28a2.07,2.07,0,0,0,0-.66c0-.16-.07,0-.07.38m-6,.91c0,.41,0,.58.08.38a3.14,3.14,0,0,0,0-.75c0-.21-.08,0-.08.37m-119,.17c0,.32,0,.45.07.29a1.42,1.42,0,0,0,0-.58c0-.16-.07,0-.07.29m4,0a4.93,4.93,0,0,0-.5.54c-.27.35-.24.33.21-.07s.62-.6.5-.6a1.33,1.33,0,0,0-.21.13m94.86.34a2.09,2.09,0,0,0-.44.6c0,.07.22-.11.5-.41s.48-.56.45-.6-.26.15-.51.41m-30.44.12c-.22.22-.33.41-.24.41s.83-.83.69-.83a2.45,2.45,0,0,0-.45.42m25.41.25a4.61,4.61,0,0,0,.74.66,3,3,0,0,0-.57-.66,5,5,0,0,0-.73-.67c-.05,0,.21.3.56.67M70,147.79c-.7.38-.53.45.19.07.42-.21.55-.22.77,0s.25.18.18,0-.48-.36-1.14,0m80.17,0c-.32.18-.53.32-.45.33a3,3,0,0,0,1.11-.58c0-.11,0-.11-.66.25m-83,.53a1.85,1.85,0,0,0,.11.87c.07,0,.11-.2.07-.53-.09-1-.16-1.16-.18-.34m64.64-.36c0,.31,0,.35.2.2s.16-.25,0-.4-.2-.11-.2.2m15.52.45a1.39,1.39,0,0,0,.12.78c.07,0,.1-.2.07-.53-.09-.93-.18-1-.19-.25m39-.33c-.64.76-.58.92.09.21.26-.27.4-.5.32-.5a.81.81,0,0,0-.41.29m-35.33.17c-.3.34-.52.71-.43.71a2.33,2.33,0,0,0,.43-.5c.41-.54.4-.68,0-.21m22.74.21c0,.32,0,.45.07.29a1.42,1.42,0,0,0,0-.58c0-.16-.07,0-.07.29m-113.53-.12c0,.48.93,1.29,1.52,1.28.12,0-.09-.14-.45-.31a2,2,0,0,1-.87-.7c-.1-.22-.2-.34-.2-.27m121.61.07a5,5,0,0,0,1.09,0c.29,0,.05-.06-.55-.06s-.84,0-.54.06m-41,1.17a2.36,2.36,0,0,0,.75,0c.21,0,0-.08-.37-.08s-.58,0-.38.08M68,149.74a1.42,1.42,0,0,0,.58,0c.17,0,0-.08-.29-.08s-.45,0-.29.08m106.67,0a1.42,1.42,0,0,0,.58,0c.16,0,0-.08-.29-.08s-.45,0-.29.08M47.37,154.08a3.54,3.54,0,0,0,.92,0c.25,0,.05-.07-.46-.07s-.71,0-.46.07m2.05.8c-.28.13-.39.23-.24.24a1.16,1.16,0,0,0,.58-.24c.4-.3.31-.3-.34,0m-1.55.36a1.47,1.47,0,0,0,.59,0c.16,0,0-.08-.29-.08s-.45,0-.3.08m33.25,4c19.55,0,51.54,0,71.09,0s3.55,0-35.54,0-55.09,0-35.55,0m-35.92.24a1.08,1.08,0,0,0-.17.71l0,.51.07-.5a1.66,1.66,0,0,1,.25-.71c.22-.27.09-.27-.17,0m142.74,0a1.87,1.87,0,0,1,.27.75l.07.5,0-.52a.92.92,0,0,0-.27-.75c-.25-.2-.26-.2-.1,0M81.21,161.08c19.5,0,51.41,0,70.91,0s3.55,0-35.45,0-55,0-35.46,0m13.12,9.3a38.21,38.21,0,0,0,.13,4.41,38.55,38.55,0,0,0,.08-4.32l-.05-4.33,1-.06,1-.06-1,0-1,0v4.42m6.84-4.33c.63.14,1.5.16,1.5,0s-.4-.12-.88-.11-.76,0-.62.07m3.33,4.33a42.89,42.89,0,0,0,.12,4.41,35.88,35.88,0,0,0,.08-4.32l0-4.32.63-.07.63-.07-.71,0-.71,0v4.42m3.21,0,0,4.46,0-4.37,0-4.37.62-.06.62-.07-.71,0-.7,0,0,4.46m9.06-4.33c0,.07.21.1.56.06.54-.05.66,0,.75.31s.15.32.2.28,0-.24-.11-.43c-.18-.35-1.22-.51-1.4-.22m5.47.08c0,.12-.06,2.12,0,4.46l.05,4.25,0-4.4,0-4.39.74.06c.4,0,.7,0,.65-.07s-1.39-.14-1.48.09m6.22-.1c.73.1.73.13.67,4.76a32.42,32.42,0,0,0,.08,4,38,38,0,0,0,.09-4.37l-.05-4.38-.67,0c-.53,0-.56,0-.12,0m7.72.11.57.34.5.29-.39-.34a1.46,1.46,0,0,0-.57-.34c-.1,0-.15,0-.11.05m-4.44,1-.49.54.5-.42.57-.46s0-.07,0-.12-.3.16-.57.46m2.72-.09a1.86,1.86,0,0,0,.67,0c.16,0,0-.07-.38-.07s-.5,0-.29.08m-1.25.39c-.6.39-1.28,1.38-1.15,1.7.05.13.09.1.09-.07a3.49,3.49,0,0,1,1.43-1.66c.28-.17.43-.31.34-.31a2.71,2.71,0,0,0-.71.34m-16,.34a1.37,1.37,0,0,0-.13.6s.15-.18.25-.47a1.35,1.35,0,0,0,.13-.6s-.15.18-.25.47m-21.64,3.4,0,3.67.09-3.34a33.26,33.26,0,0,0,0-3.66,18.66,18.66,0,0,0-.09,3.33m5.84-3.17c.06.14,0,.25-.1.25s-.16,0,0,.14.22,1,.25,3.29l0,3.16,0-3.55c0-2.5,0-3.54-.15-3.54s-.14.11-.09.25m24.42,1.55a3,3,0,0,0,.56.64c.11.07,0-.11-.18-.4a3.48,3.48,0,0,0-.56-.65c-.11-.06,0,.12.18.41m11.74.87c0,.5,0,.71.07.46a3.54,3.54,0,0,0,0-.92c0-.25-.07-.05-.07.46m1.34.08c0,.55,0,.76.06.46a4.18,4.18,0,0,0,0-1c0-.25-.07,0-.06.54m-24,.18c-.28.61-.22.74.08.18.14-.26.22-.5.18-.54s-.15.12-.26.36M132,171.91a1.45,1.45,0,0,0,.34.57l.35.4-.3-.5c-.38-.66-.39-.67-.39-.47m-16.5.34a6.78,6.78,0,0,0,1.83.07c1.58,0,1.84,0,1.84.21s.06.26.15.26.11-.15.06-.33c-.09-.34-3.88-.55-3.88-.21m5,.13a4.18,4.18,0,0,0,.4.91c.22.41.4.68.4.59a4,4,0,0,0-.4-.92c-.22-.41-.4-.68-.4-.58m10.31,0a1.38,1.38,0,0,0,.35.57l.34.4-.29-.5c-.39-.66-.4-.67-.4-.47m5.79.64c-.26.22-.4.41-.32.41a1.44,1.44,0,0,0,.53-.42c.5-.53.39-.53-.21,0m-22.76.33c-.28.62-.22.75.08.19.14-.26.22-.51.18-.54s-.15.12-.26.35m-.82.83c0,.37,0,.5.08.29a1.66,1.66,0,0,0,0-.67c0-.16-.07,0-.07.38"/><path id="path2" class="cls-3" d="M133.5,3.32a3.34,3.34,0,0,0,.5.53c.28.26.5.39.5.3s-.22-.33-.5-.52a1.92,1.92,0,0,0-.5-.31M115.06,5a1.08,1.08,0,0,0,0,.54c0,.19.1.1.15-.24.09-.56,0-.71-.13-.3M67.72,9c-.38.42-.61.79-.5.79a3.08,3.08,0,0,0,.52-.58c.5-.66.49-.78,0-.21m94,2-.4.52.48-.45c.26-.25.44-.48.4-.52s-.26.17-.48.45m4.06,1.13c-.34.36-.38.45-.14.3s.84-.82.68-.82a3.81,3.81,0,0,0-.54.52m-52.61,3.77c.08,1.26.16,1.37.18.25a2.13,2.13,0,0,0-.1-1c-.07,0-.11.35-.08.79m43.61,4.91-.66.71.71-.66a6.79,6.79,0,0,0,.71-.71c0-.12-.14,0-.76.66m-4.5,0-.49.55.54-.49c.51-.46.62-.6.49-.6a4.76,4.76,0,0,0-.54.54m-44.07,5c-.4.13-.39.14.12.15.3,0,.54-.06.54-.15s-.08-.19-.66,0m12.83,0c0,.09.24.17.53.17.61,0,.58-.07-.07-.23-.27-.07-.46,0-.46.06M104,26l-.75.12.67,0a2.08,2.08,0,0,0,.91-.14c.14-.09.18-.15.09-.14L104,26m21.46.12a1.86,1.86,0,0,0,.67,0c.16,0,0-.07-.38-.07s-.5,0-.29.08m-23.84,9.83a12.78,12.78,0,0,0,1.75,0c.49,0,.09-.06-.87-.06s-1.36,0-.88.06m22.56.61a4.23,4.23,0,0,0,.74.16c.45.07.58,0,.41-.06s-1.31-.24-1.15-.1m3.07.27c.46.2.62.2.5,0a.6.6,0,0,0-.47-.15c-.35,0-.35,0,0,.15M34.33,42.38c-.22.13-.34.23-.25.23a1.75,1.75,0,0,0,.59-.23c.23-.14.34-.24.25-.24a1.62,1.62,0,0,0-.59.24m127.47.7a14.27,14.27,0,0,0,1.14,1.21c.25.23,0-.13-.59-.79-1.16-1.34-1.6-1.67-.55-.42m-6.22,3.38a4.39,4.39,0,0,0,.74.67,3.15,3.15,0,0,0-.57-.67,5,5,0,0,0-.73-.67c-.05,0,.21.3.56.67M158.86,50a2.43,2.43,0,0,0,.42.42s-.06-.19-.21-.42-.34-.41-.42-.41,0,.18.21.41m11.68,1.84c.34.36.65.61.69.57s-.23-.33-.62-.64l-.69-.57.62.64M74.67,53.19a2,2,0,0,0,.5.44c.27.19.5.31.5.27a1.81,1.81,0,0,0-.5-.44c-.28-.2-.5-.32-.5-.27m87.5.32a3.81,3.81,0,0,0,.52.54l.53.49-.39-.54c-.33-.45-.66-.7-.66-.49M66.33,54.68a4.76,4.76,0,0,0,.54.54l.55.49-.49-.54c-.46-.51-.6-.62-.6-.49M166.62,58c.2.21.41.34.46.29s-.11-.22-.37-.38l-.46-.3.37.39M138.21,88.24a2.88,2.88,0,0,0,.83,0c.21,0,0-.07-.46-.07s-.62,0-.37.07m-8,2.64c-.22.22-.33.41-.26.41a2.33,2.33,0,0,0,.76-.77c0-.13-.13,0-.5.36M147,93.63c0,.18.08.33.17.33s.16-.15.16-.33-.07-.34-.16-.34-.17.15-.17.34m-128.62,2c1.44,0,3.8,0,5.25,0s.26,0-2.63,0-4.07,0-2.62,0m19,0c1.26,0,3.32,0,4.58,0s.23,0-2.29,0-3.56,0-2.29,0m166,0c.8,0,2.11,0,2.91,0s.15,0-1.46,0-2.26,0-1.45,0M176,95.85a3.72,3.72,0,0,0,1.16.53,3.23,3.23,0,0,0-1.11-.59c-.06,0-.08,0-.05.06m4.16.19c-.23.13-.35.24-.25.24a1.9,1.9,0,0,0,.58-.24c.23-.13.34-.24.25-.24a1.9,1.9,0,0,0-.58.24m-163.54.54c.58,0,1.48,0,2,0s.05-.06-1.05-.06-1.52,0-.95.06m5.83,0a13.28,13.28,0,0,0,1.67,0c.43,0,0-.06-.88-.06s-1.27,0-.79.06m15.07,0c.8,0,2.15,0,3,0s.2,0-1.45,0-2.34,0-1.55,0m56.08,2.17a32.26,32.26,0,0,0,0,5.43,17.28,17.28,0,0,0,.14-3c0-3.28,0-3.4-.15-2.44m85.94.79c0,.46,0,.63.07.37a2.88,2.88,0,0,0,0-.83c0-.2-.07,0-.07.46m40.78.47a4.39,4.39,0,0,0,.55.54l.54.49-.49-.54c-.46-.5-.6-.62-.6-.49M91.57,104.46c0,2,0,2.78.05,1.79s0-2.6,0-3.58-.05-.18-.05,1.79m-51-2.13c-.57,1-.61,1.06-.31.71s.63-.91.52-.91-.14.09-.21.2m183.11,1.21a3.64,3.64,0,0,0,.65.59,2.41,2.41,0,0,0-.49-.59,3.89,3.89,0,0,0-.64-.58c-.05,0,.17.26.48.58m-69.4,0a2.14,2.14,0,0,0-.08.71c0,.34.05.28.14-.22.14-.71.11-.94-.06-.49m50,.36a5,5,0,0,0,1.09,0c.29,0,.05-.06-.55-.06s-.84,0-.54.06M93.51,107.17a20.69,20.69,0,0,0,.14,2.86,10.59,10.59,0,0,0,0-2.5l-.07-2.82.56.5.56.5-.49-.54c-.73-.82-.76-.75-.75,2M204,104.75a11.21,11.21,0,0,0,1.42,0c.38,0,.07-.07-.71-.07s-1.1,0-.71.07m4.75.54c0,.32,0,.45.07.29a1.42,1.42,0,0,0,0-.58c0-.16-.07,0-.07.29m-111.46.38c.16.26.34.42.39.37s-.08-.26-.29-.46l-.39-.37.29.46m-20.37.41c.72,0,1.84,0,2.5,0s.08-.06-1.3,0-1.91,0-1.2,0m-39.11.59-.3.54.35-.42c.3-.37.44-.66.3-.66a2.59,2.59,0,0,0-.35.54m-35.39.54c0,.46,0,.62.07.37a2.88,2.88,0,0,0,0-.83c0-.21-.07,0-.07.46m61,1.08c0,.78,0,1.1.07.71a11.21,11.21,0,0,0,0-1.42c0-.39-.07-.07-.07.71m116.16.92c0,.46,0,.62.07.37a2.88,2.88,0,0,0,0-.83c0-.21-.07,0-.07.46m47.62,1.13a3.73,3.73,0,0,0,.54.55l.54.49-.49-.55c-.45-.5-.59-.61-.59-.49m-34.83.91c0,.33,0,.39.15.22a.56.56,0,0,0,.06-.45c-.14-.36-.22-.27-.21.23m-25.67.54c-.23.18-.34.33-.24.33a1,1,0,0,0,.49-.33c.38-.42.28-.42-.25,0m63,1c.69.74.84.87.84.75a9.25,9.25,0,0,0-.79-.8l-.79-.74.74.79m1.93.85c-.05.16-.12.39-.17.53s0,.25,0,.25a1.56,1.56,0,0,0,.33-1s-.12,0-.17.19m-195.21.56a1.42,1.42,0,0,0,.58,0c.16,0,0-.08-.29-.08s-.46,0-.29.08m48.66,0a1.42,1.42,0,0,0,.58,0c.17,0,0-.08-.29-.08s-.45,0-.29.08m102.17,23.3c0,.37,0,.5.08.29a2.12,2.12,0,0,0,0-.67c0-.15-.07,0-.07.38m-135.92-.29a6.49,6.49,0,0,0,1.08,0c.3,0,.06-.07-.54-.07s-.84,0-.54.07m3.59,0c.53,0,1.36,0,1.84,0s0-.06-1-.06-1.4,0-.87.06m65.69.47a.8.8,0,0,1,.26.44c0,.11,0,.14.1.09s-.24-.79-.45-.79,0,.12.09.26m-20,.35a3.91,3.91,0,0,1-.13.83c-.09.29-.08.29.1,0a1.49,1.49,0,0,0,.12-.83l-.07-.54,0,.53m75.32.72c0,.61,0,.68.16.38a1.08,1.08,0,0,0,0-.75c-.13-.31-.16-.24-.16.37m-62.17,6a1.47,1.47,0,0,0,.12.78c.07,0,.1-.19.07-.53-.09-.92-.18-1-.19-.25m73.53,1c0,.41,0,.58.08.38a3.14,3.14,0,0,0,0-.75c0-.21-.08,0-.08.37M93,148.28a1.21,1.21,0,0,0,.48.49c.32.19.35.2.16,0s-.36-.35-.48-.49-.21-.2-.16,0m36.64.53c-.58.51-.58.51,0,.16a2.83,2.83,0,0,0,.63-.52c.17-.26,0-.18-.58.36m47.15-.07-.4.44.45-.32c.25-.17.46-.37.46-.44s-.08-.15-.51.32m-72.51.59a.7.7,0,0,0,.55.09c.33,0,.31-.07-.16-.15s-.48,0-.39.06m62.36,0-.59.12.53,0a.92.92,0,0,0,.64-.15c.06-.09.08-.15.05-.14l-.63.14M94.54,170.42l0,4.29,0-4.2,0-4.2.79-.06.79-.06-.88,0-.87,0,0,4.29m7.29-4.18.67.07,0,4.12,0,4.11v-8.33l-.71,0h-.7l.66.06m3.13,0a1.88,1.88,0,0,0,.67,0c.16,0,0-.07-.38-.07s-.5,0-.29.07m3.17,0a1.82,1.82,0,0,0,.66,0c.16,0,0-.07-.37-.07s-.5,0-.29.07m8.64,0c0,.07.22.1.58.07a1.76,1.76,0,0,0,.65-.13c0-.12-1.15-.06-1.23.06m5.85,0a2.36,2.36,0,0,0,.75,0c.21,0,0-.07-.37-.07s-.58,0-.38.07m5.49,0a24.46,24.46,0,0,0-.11,3.16c0,2.73-.11,3.54-.39,2.85-.06-.16-.09-.16-.1,0a.58.58,0,0,0,.32.39c.33.17.34.12.34-3.07v-3.25l.45-.07.46-.06-.43,0a1,1,0,0,0-.54.09m9.43,1c.25.27.48.45.52.41s-.17-.26-.46-.48l-.52-.4.46.47m-36.88.19a6,6,0,0,1-.27.61c-.06.09,0,.12.07.06s.58-1.11.44-1.11a1.05,1.05,0,0,0-.24.44m4.07,2.31c0,1.56,0,2.22.06,1.47s0-2,0-2.84-.06-.19-.06,1.37m31.76-2c.43.48.51.52.51.3s-.21-.28-.46-.44l-.46-.3.41.44M120,171.33a1.16,1.16,0,0,1,.17.52c0,.07,0,.09.13,0s.07-.26-.1-.51c-.34-.52-.48-.54-.2,0m-5.5.45c-.1.28-.14.51-.1.51a1.59,1.59,0,0,0,.34-.95s-.14.16-.24.44m11.13-.38c.1,0,.15.14.12.2s.14.3.36.53l.42.41-.35-.58a1.68,1.68,0,0,0-.54-.61c-.11,0-.12,0,0,.05m10.09,2.31c-.42.21-.43.23-.08.14a1.47,1.47,0,0,0,.57-.24c.22-.21.1-.18-.49.1m1.5.28-.5.51.62-.46a3.17,3.17,0,0,0,.63-.52c0-.18-.3,0-.75.47m-27.53.76c.62,0,1.59,0,2.16,0s.06-.06-1.13-.06-1.66,0-1,.06"/><path id="path3" class="cls-4" d="M83.36,1c-.31.09-.54.19-.5.22S84,1.08,84,.94s0-.14,0-.13l-.6.17m21.22,0a7,7,0,0,0,1,.24c.43.07.55.06.34,0a5.77,5.77,0,0,0-1-.25c-.43-.06-.55-.05-.34,0m7.09,1.21c0,.08.22.14.5.14a1.17,1.17,0,0,0,.5-.06s-.23-.1-.5-.14-.5,0-.5.06m1.48.19a1.12,1.12,0,0,0,.7.08c.55,0,.55-.06-.14-.14-.38,0-.64,0-.56.06m15.37,0c.22.13,1.62.22,1.47.09a4.14,4.14,0,0,0-.89-.15c-.49,0-.72,0-.58.06m19.23,0-.5.13.45,0a.74.74,0,0,0,.55-.15c.06-.09.08-.16.05-.15a5.49,5.49,0,0,1-.55.15M75.67,3.54c-.42.22-.69.41-.62.41a4.93,4.93,0,0,0,1.45-.74c0-.12,0-.12-.83.33m16.46-.29a15.5,15.5,0,0,0,1.67,0c.43,0,0-.06-.88-.06s-1.27,0-.79.06m84.33.14c-.62.34-.59.48,0,.15.28-.14.5-.29.5-.34s0-.1-.54.19m-88,0c0,.07.22.1.57.07a2.14,2.14,0,0,0,.66-.13c0-.13-1.15-.07-1.23.06M96,3.36a2,2,0,0,0,.65.13c.36,0,.62,0,.58-.07S96,3.23,96,3.36m-8.9.24c0,.07.14.1.41.06s.49-.1.49-.14-.81-.06-.9.08m10.57-.08s.22.1.49.14.45,0,.4-.06-.89-.2-.89-.08m-16,1.16a2.73,2.73,0,0,0-.65.32c-.17.17,1-.22,1.17-.4s.15-.17-.52.08m91,1.05c-.3.25-.36.36-.15.25s.88-.7.71-.68a4.8,4.8,0,0,0-.56.43m-30-.15a3.17,3.17,0,0,0-.18.8c-.11.74,0,.63.21-.3.15-.59.14-.78,0-.5M106,5.71a2.47,2.47,0,0,0,1.1.54s-.2-.19-.52-.34-.58-.25-.58-.2m59.47,1.08c-.4.42-.55.7-.44.77s.14,0,.08-.06,0-.21.12-.26,1.05-1.12.91-1.11a6.51,6.51,0,0,0-.67.66m4.86,1A8,8,0,0,0,169,9.12a2.88,2.88,0,0,0,.73-.66,2.59,2.59,0,0,1,.7-.63,2.92,2.92,0,0,0,.8-.67c1.15-1.17.57-.78-.94.63M76,7.31c-.57.36-.75.61-.25.33s1-.67.88-.67a3.16,3.16,0,0,0-.63.34m66.4.68a22.08,22.08,0,0,0-.07,2.8l0,2.42.09-2.75c.1-3,.1-3-.05-2.47m-68.16.68c-.52.51-.52.52,0,.12l.67-.54c.09-.07.1-.12,0-.12a2.5,2.5,0,0,0-.67.54m40.5.07a8.22,8.22,0,0,0-.09,1.79l0,1.68.11-1.75c.11-1.88.11-1.89,0-1.72m48.13.95c-.18.13-.28.29-.23.34s.24,0,.4-.24c.36-.39.28-.43-.17-.1m5,.31-.49.54.54-.49c.5-.45.62-.59.49-.59a4,4,0,0,0-.54.54m-95.43.42c-.41.43-.86.94-1,1.12A14.42,14.42,0,0,0,73.2,9.83c.44-.51,0-.13-.72.59m-6.31.33a3.83,3.83,0,0,1-.65.83c-.36.39-.61.71-.56.71s0,.13-.14.29c-.47.63.18-.09.91-1,.43-.52.7-.95.61-.95s-.17,0-.17.12m100.58.38c-.26.27-.4.5-.31.5s.33-.23.53-.5a1.82,1.82,0,0,0,.32-.5,2.82,2.82,0,0,0-.54.5M112,10.88a3.87,3.87,0,0,0,.33.83c.17.37.27.48.21.25-.12-.47-.55-1.34-.54-1.08m47.05,2.82c-.36.32-.57.58-.48.58a2,2,0,0,0,.74-.57c.73-.75.58-.75-.26,0m4.43.53c-.51.52-.8.87-.66.79a9.89,9.89,0,0,0,1.63-1.73,11.16,11.16,0,0,0-1,.94M114.61,14a9.94,9.94,0,0,0-.08,1.72c0,1.13,0,1.11.14-.48.13-1.77.11-2.1-.06-1.24M69.08,15.31a1.29,1.29,0,0,0-.21.58s.19-.2.35-.52c.34-.72.22-.77-.14-.06m-6.16.08c-.15.24-.25.46-.22.49s.2-.15.36-.43c.36-.6.25-.65-.14-.06m50.44,2.49c.11.23.22.39.24.36s-.14-.78-.28-.78-.06.19,0,.42m41.21.54-.8,1,.71-.67c.64-.6,1.14-1.25,1-1.25a9.15,9.15,0,0,0-.87,1m-86.7-.25c-.28.78-.24,1,.06.3a2.11,2.11,0,0,0,.2-.72c0-.08-.15.11-.26.42m90.79.73c-.92.94-1,1.12-.49.68s2-1.95,1.79-1.95-.61.57-1.3,1.27m-22.92,1.73c0,1.6,0,2.26,0,1.45s0-2.11,0-2.91,0-.15,0,1.46m6.66.41c0,1.84,0,2.61.06,1.72s0-2.39,0-3.33-.06-.22-.06,1.61m-82-.08c-.1.28-.12.5-.05.5s.4-.83.3-.93-.15.16-.25.43m89.47,2.38-.91,1,1-1c.57-.55,1-1,1-1,0-.22-.39.12-1.15,1m-13.52.35s.23.1.5.14.5,0,.5-.07-.22-.13-.5-.13-.5,0-.5.06m-27.5,2.1c0,.09.23.17.51.17s.47-.07.41-.17a.72.72,0,0,0-.51-.16c-.22,0-.41.07-.41.16m11.25,0c-.06.1.11.17.41.17s.51-.08.51-.17-.18-.16-.41-.16a.72.72,0,0,0-.51.16M104.83,26c-.2.13-.18.16.12.16a.64.64,0,0,0,.47-.16c.13-.21-.26-.21-.59,0m19.59,0a.61.61,0,0,0,.47.16c.29,0,.31,0,.11-.16s-.71-.21-.58,0m-22.92.17-.92.11,1,0c.55,0,1,0,1-.13s0-.16,0-.14l-1,.14m25.83,0c0,.08.44.14,1,.13,1.08,0,1-.09-.17-.2-.43,0-.79,0-.79.07m-28,.14-.75.12.7,0a1.24,1.24,0,0,0,.8-.14c.06-.09.08-.15.06-.14s-.39.08-.81.14m30.49.05a1.33,1.33,0,0,0,.78.08l.65-.05-.78-.08c-.44-.05-.73,0-.65.05m1.85.12a1.61,1.61,0,0,0,.73.16c.65,0,.51-.09-.32-.22-.45-.07-.58,0-.41.06m-44.09,1-.5.13.45,0c.25,0,.5-.06.55-.15s.08-.16.06-.15l-.56.15m54.23,0a.74.74,0,0,0,.55.09c.33-.05.31-.07-.16-.15s-.48,0-.39.06m8,1.12c.16.14,1.53.42,1.39.28a3.35,3.35,0,0,0-.81-.25c-.4-.09-.66-.11-.58,0m-85.69.12a1.37,1.37,0,0,0-.5.25c-.11.12,0,.13.25.05.87-.25,1.07-.49.25-.3m-3.87,1c-.21,0-.38.14-.38.21s.64,0,.77-.18.06-.13,0-.12l-.43.09m101.88,1.37c.18.16,1.21.43,1.06.27a2.88,2.88,0,0,0-.66-.26c-.3-.08-.48-.09-.4,0m-95.67.27-.5.23.5-.1c.53-.11.68-.18.57-.29a1.28,1.28,0,0,0-.57.16M61.25,32.7c-.66.3-.51.31.42,0,.41-.13.6-.24.41-.24a2.7,2.7,0,0,0-.83.22m106.33-.07c.46.19.63.19.5,0a.54.54,0,0,0-.47-.16c-.35,0-.35,0,0,.16M57,33.89l-.58.23L57,34a1.72,1.72,0,0,0,.74-.25c.23-.21,0-.17-.74.12m115,0a3.54,3.54,0,0,0,.83.22c.14,0,0-.1-.33-.22a3.21,3.21,0,0,0-.83-.23c-.14,0,0,.1.33.23M53,35.15c-.43.18-.56.28-.3.23a2.9,2.9,0,0,0,1.3-.5c0-.13-.18-.08-1,.27m122.59-.22a3,3,0,0,0,1.36.46s-.29-.18-.73-.33-.72-.21-.63-.13m-76.8,1a5.62,5.62,0,0,0,1.16,0c.35,0,.11-.06-.53-.06s-.93,0-.63.06m5.84,0a4.18,4.18,0,0,0,1,0c.25,0,0-.07-.55-.07s-.75,0-.45.07m-15.75.17a2.88,2.88,0,0,0,.83,0c.21,0,0-.08-.46-.07s-.63,0-.37.07m26.16,0a3.54,3.54,0,0,0,.92,0c.25,0,0-.07-.46-.07s-.71,0-.46.07m-30.17.19c-.12.07.21.1.75.07,1.32-.1,1.49-.19.38-.2a3.33,3.33,0,0,0-1.13.13m33.38-.06c.37.13,2.24.18,2,0a4.07,4.07,0,0,0-1.21-.12c-.55,0-.92,0-.83.07m61.08,0a2.43,2.43,0,0,0,1.3.51c.05,0,.05-.09,0-.09a5.06,5.06,0,0,1-.69-.26c-.34-.14-.61-.21-.61-.16m-97,.21c0,.07.32.11.71.08,1.17-.09,1.27-.17.25-.19-.52,0-1,0-1,.11m38.92,0a5.15,5.15,0,0,0,2,0,2.69,2.69,0,0,0-1.12-.13c-.56,0-1,0-.86.08m14.49,5.08c0,2.34,0,3.29,0,2.12s0-3.08,0-4.25,0-.21,0,2.13m-67-3.87c0,.07.18.1.49.07a1.29,1.29,0,0,0,.57-.14c0-.12-1-.06-1.06.07M183,37.71a1.82,1.82,0,0,0,.67.24c.13,0,0-.11-.31-.25-.71-.31-.9-.3-.36,0m-115.5,0c0,.08.22.11.5.07s.5-.1.5-.14-.22-.06-.5-.06-.5.06-.5.13m-.9.62a2.1,2.1,0,0,0,.24.81c.08.09.07-.14,0-.5-.25-.95-.33-1.07-.22-.31m75.77,3.29,0,3.87.05-3.8a16.29,16.29,0,0,1,.21-3.7c.09.06.16,0,.16-.07s-.11-.18-.25-.18-.24.53-.21,3.88m6-3.09a2.16,2.16,0,0,0,.63.61l.62.49-.57-.61c-.6-.64-.68-.69-.68-.49m37.82.39a2.11,2.11,0,0,0,.8.26,4.15,4.15,0,0,0-1.41-.59c-.07,0,.21.15.61.33M58.59,39c-.06.1,0,.13.14.08s.27,0,.32.21.06.27.05,0-.35-.54-.51-.27M39.42,40.21c-.42.21-.43.23-.09.14s1-.38.75-.38a2.58,2.58,0,0,0-.66.24m11.83-.08c-.21.09-.24.14-.08.14a2.1,2.1,0,0,0,.58-.14C52,40,52,40,51.83,40a1.84,1.84,0,0,0-.58.15m98.52-.05c-.05.05.24.39.65.75a2.83,2.83,0,0,1,.71.77,6.29,6.29,0,0,0,1.08,1.24,8.74,8.74,0,0,0,1.12,1,35.31,35.31,0,0,0-3.56-3.81M162.5,40s.22.1.5.14.5,0,.5-.06-.22-.14-.5-.14a1.13,1.13,0,0,0-.5.06m26,0a1.73,1.73,0,0,0,.54.24c.5.17.52.16.22-.06s-.76-.34-.76-.18m-24.67.16s.23.1.5.14.45,0,.4-.07-.9-.2-.9-.07m-3.25,1.74c.64.66,1.19,1.2,1.22,1.2A8.47,8.47,0,0,0,160,41.2c-.39-.29-.19,0,.55.73M44.92,41.29c-.46.12-.47.13-.09.15a1.36,1.36,0,0,0,.67-.15c.28-.18.14-.18-.58,0m22.93,1.46a1.62,1.62,0,0,0,.34.64c.08,0,.06-.12,0-.38-.3-.69-.51-.88-.29-.26m-29-.12c-.34.11-.35.13-.08.14a1.21,1.21,0,0,0,.58-.14c.3-.19.09-.19-.5,0m145.67.06s.22.1.49.14.46,0,.41-.07-.9-.2-.9-.07m9.83,1.17a1.3,1.3,0,0,0,.49.13c.28,0,.46,0,.41-.06s-.9-.2-.9-.07m1.75.1c-.05.09,0,.17,0,.18a3.7,3.7,0,0,1,.43.07c.37.07.39-.18,0-.32s-.37-.13-.49.07m-135.72.67c.1.28.21.48.25.44s-.23-.94-.35-.94,0,.22.1.5m-30.77.26c-.34.25-.21.29.32.09.17-.07.25-.17.16-.23s-.3,0-.48.14m124.84.27c.26.34.51.58.56.54s-.17-.33-.48-.62l-.56-.54.48.62m2.16,2.37a1.44,1.44,0,0,0,.55.51c.16.06.07-.1-.21-.4-.59-.62-.69-.65-.34-.11M71.82,49.94a3.17,3.17,0,0,0,.56.63c.11.06.07,0-.09-.22s-.26-.37-.21-.41-.08-.18-.28-.29-.34-.21,0,.29m70.58,1.44c0,1.1,0,1.52.06.95s0-1.48,0-2-.06,0-.06,1.05m16.78-1.15c.23.33,1.32,1.33,1.32,1.19a8.34,8.34,0,0,0-.78-.8c-.42-.41-.66-.59-.54-.39M63.85,51.46a1.65,1.65,0,0,1,.2.5s.18.23.42.41l.43.32L64.42,52c-.65-.89-.84-1.07-.57-.57m10.3,1.23a1.56,1.56,0,0,0,.57.44c.22,0-.21-.49-.62-.7s-.31-.14.05.26m97.18,0a.69.69,0,0,0,.38.25c.09,0,.07-.11,0-.25a.66.66,0,0,0-.38-.25c-.09,0-.07.11,0,.25m-57.84.37c-.34.93-.35,1-.19.8s.55-1.25.44-1.25-.16.2-.25.45m-48.32.15a5.23,5.23,0,0,0,1.25,1.37,3.94,3.94,0,0,0-.6-.79c-.36-.4-.65-.66-.65-.58m10,.45a3.81,3.81,0,0,0,.52.54c.36.34.45.38.31.14s-.83-.84-.83-.68m87.76.48c.6.68,3.32,3.38,3.65,3.62a16.18,16.18,0,0,0-1.74-1.87c-1.91-1.94-2.71-2.67-1.91-1.75m10.07,0a4.24,4.24,0,0,0,.53.54c.52.49.52.49.21,0S173,54,173,54.18M76.5,55a2.38,2.38,0,0,0,.41.32c.32.21.39.22.32,0s-.73-.51-.73-.35m66,1a3.1,3.1,0,0,0,.13,1.2c.07,0,.1-.38.07-.95-.09-1.45-.18-1.56-.2-.25m-30.26.14c-.14.27-.22.5-.17.5a1.57,1.57,0,0,0,.34-.5c.14-.28.22-.5.17-.5a1.44,1.44,0,0,0-.34.5m-34.34,0a6.51,6.51,0,0,0,1.59,1.12,5.06,5.06,0,0,0-.85-.68c-.47-.34-.8-.54-.74-.44m97.42.27a2.52,2.52,0,0,0,.46.41c.14,0-.55-.82-.69-.83s0,.19.23.42m-107.26.06a1.54,1.54,0,0,0,.46.37c.25.13.31.13.23,0a1.42,1.42,0,0,0-.46-.37c-.24-.13-.31-.13-.23,0m108.43.9a4,4,0,0,0,.53.55l.53.49-.4-.54c-.35-.45-.66-.69-.66-.5m-106.33,1c0,.11,0,.14.11.08s.27,0,.46.18c.34.29.34.29,0-.08s-.6-.49-.6-.18m107.5,0a3.73,3.73,0,0,0,.54.55l.54.49-.49-.55c-.45-.5-.59-.61-.59-.49m-106.5.5a2.61,2.61,0,0,0,.41.42c.23.2.42.3.42.22s-.19-.27-.42-.42-.41-.25-.41-.22m36.29,1.38c-.65.35-.57.47.08.14s.74-.4.53-.39a2.11,2.11,0,0,0-.61.25m-22,.05a1.49,1.49,0,0,0,.63.34c.62.22.43,0-.26-.29-.26-.11-.42-.13-.37,0m84.66.56c-.07.12-.06.16,0,.09s.44.12.82.41c1.07.82,1.1.84,1.1.75,0-.25-1.83-1.43-1.93-1.25m-67,.72-.66.22.66-.09c.68-.1.87-.17.74-.28a1.85,1.85,0,0,0-.74.15m41.59,1.21c0,.08.19.23.41.33s.42.17.42.13a1.75,1.75,0,0,0-.42-.33c-.22-.15-.41-.21-.41-.13m40,0a2.58,2.58,0,0,0,.66.27c.29.08.34.06.17,0a2.83,2.83,0,0,0-.67-.27c-.29-.08-.34-.06-.16,0M111.5,63.81c-.5.26-.8.47-.67.47a4.58,4.58,0,0,0,1.17-.49c1.16-.63.73-.61-.5,0m78.89.32c0,.39,0,.45.15.26a.62.62,0,0,0,0-.53c-.11-.19-.15-.13-.15.27m-15-.17c.11.18.75.32.75.17s-.19-.17-.41-.21-.38,0-.34,0m-37.92.67c0,.09.17.16.37.16s.33,0,.13-.16-.5-.21-.5,0m2.58,0c-.05.09,0,.16.15.16a.43.43,0,0,0,.35-.16c.06-.1,0-.17-.14-.17a.45.45,0,0,0-.36.17m-7,.11a1.82,1.82,0,0,0,.66,0c.16,0,0-.07-.37-.07s-.5,0-.29.07m11.91,0a3,3,0,0,0,.84,0c.2,0,0-.07-.46-.07s-.63,0-.38.07m-57,.62a.9.9,0,0,0,.42.14c.23,0,.41,0,.41-.06s-.18-.15-.41-.15-.42,0-.42.07m10,.55a1.42,1.42,0,0,0,.58,0c.17,0,0-.08-.29-.08s-.45,0-.29.08m39.83,21c.62,0,1.64,0,2.25,0s.12-.06-1.12-.06-1.74,0-1.13.06m3.8,0a1.38,1.38,0,0,0,.65.16c.54,0,.4-.09-.32-.22-.41-.08-.51-.06-.33.06M1.56,88a4.76,4.76,0,0,1,.55.55c.22.28.23.28.06-.07A1.39,1.39,0,0,0,1.62,88c-.34-.16-.35-.16-.06.07M6,88.21c-.21.23-.36.44-.32.46s.27-.16.52-.41.39-.47.32-.47a1.63,1.63,0,0,0-.52.42m125.5-.08c-.32.17-.52.32-.45.32a3,3,0,0,0,1.12-.58c0-.11,0-.1-.67.26m6.11,0c0,.07.39.13,1,.13s1-.06,1-.13a2.32,2.32,0,0,0-1-.12,2.29,2.29,0,0,0-1,.12m-1.78.18c0,.07.27.1.59.06a1.27,1.27,0,0,0,.58-.13,1.32,1.32,0,0,0-.58-.06c-.32,0-.59.06-.59.13m8.35.92a7.17,7.17,0,0,0,1.57.94,5.66,5.66,0,0,0-1.52-1c-.07,0-.09,0,0,.05m-16,1.11a2.51,2.51,0,0,0-.57.62c-.26.42-.24.41.31-.11.74-.69.8-.83.26-.51m1.92.54c-.55.63-.85,1.09-.41.64.22-.24.48-.4.58-.37s.12,0,0-.07,0-.22.07-.35c.31-.38,0-.24-.29.15m16-.11a4.31,4.31,0,0,1,.53.52q.25.32,0-.21c-.16-.28-.4-.52-.54-.52s-.2,0,0,.21m1.7.52a6.1,6.1,0,0,0-.11,1.52c0,1.15-.06,1.45-.3,1.63s-.27.22,0,.23a.42.42,0,0,0,.37-.37,31.13,31.13,0,0,0,.16-3.12l-.12.11m-21.33,1.09c-.39.52-.93,1.47-.74,1.3a14.06,14.06,0,0,0,1.2-1.84,3.36,3.36,0,0,0-.46.54m-1.59,3c-.1.28-.14.51-.1.51s.43-.86.35-1-.15.16-.25.44m91.14,0a1.5,1.5,0,0,0,.45.54l.44.41-.37-.54c-.38-.55-.52-.66-.52-.41m-88.56.56c-.15.73,0,.76.18.06.1-.33.12-.59,0-.59s-.17.24-.23.53M15.78,95.67c0,.07,2.43.12,5.3.12s5.27-.05,5.31-.12-2.35-.13-5.31-.13-5.35.06-5.3.13m18.85,0c.16.06,2.5.1,5.2.09s4.58,0,4.17-.07c-1.66-.11-9.64-.13-9.37,0M49,95.58a3,3,0,0,0,.84,0c.2,0,0-.08-.46-.07s-.63,0-.38.07m2.06.08a.72.72,0,0,0,.48.13.7.7,0,0,0,.48-.13c0-.07-.17-.13-.48-.13s-.52.06-.48.13M53,95.52c.17.14,1.49.23,1.49.09s-.35-.15-.78-.15a2,2,0,0,0-.71.06m8.16.08c0,.09.35.12.79.07,1.18-.11,1.24-.18.16-.2-.52,0-.95,0-.95.13m2.87.06c.27.17.75.17.86,0s-.18-.13-.49-.13-.49,0-.37.13m2.09-.08a1.81,1.81,0,0,0,.66,0c.16,0,0-.07-.37-.07s-.5,0-.29.08m23.37.17c0,.2,0,.23.13.09a1.94,1.94,0,0,1,1-.26l.83-.06-1,0c-.82,0-1,0-1,.26m2.77-.1c0,.08.22.14.4.14a.53.53,0,0,0,.4-.14c0-.07-.14-.14-.4-.14s-.45.07-.4.14m2-.07a1.86,1.86,0,0,0,.67,0c.16,0,0-.07-.38-.07s-.49,0-.29.08m7.65.08a.7.7,0,0,0,.48.13.72.72,0,0,0,.48-.13c0-.07-.17-.13-.48-.13s-.53.06-.48.13m2.18-.08a2.36,2.36,0,0,0,.75,0c.21,0,0-.08-.37-.08s-.58,0-.38.08m54.13.13-.5.23.5-.09a1.88,1.88,0,0,0,.66-.25c.24-.21-.08-.16-.66.11m17.63-.13a3.47,3.47,0,0,0,.91,0c.25,0,.05-.07-.46-.07s-.71,0-.45.07m2.22.07a.64.64,0,0,0,.8,0c0-.07-.13-.14-.4-.14s-.45.07-.4.14m2-.07a1.81,1.81,0,0,0,.66,0c.16,0,0-.07-.37-.07s-.5,0-.29.08m8,.17c0,.2,0,.23.13.09a1.93,1.93,0,0,1,.95-.26l.83-.06-1,0c-.82,0-1,0-1,.26m2.76-.1c.11.17.9.19.9,0s-.22-.14-.49-.15-.46,0-.41.13m1.82-.11c.39.14,1.42.17,1.42,0s-.36-.13-.79-.12-.72,0-.63.07m6.79,0a3.54,3.54,0,0,0,.92,0c.25,0,0-.07-.46-.07s-.71,0-.46.07m2.35.08a37.78,37.78,0,0,0,6.11,0,19.54,19.54,0,0,0-3.15-.13,17.19,17.19,0,0,0-3,.12m26.65-.08a3,3,0,0,0,.84,0c.2,0,0-.08-.46-.07s-.63,0-.38.07m2,.08c.27.17.75.17.86,0s-.18-.13-.49-.13-.49,0-.37.13m2-.08a1.38,1.38,0,0,1,.79.27c.08.13.13.09.13-.1s-.14-.29-.79-.26-.79,0-.13.09m-170.25.26a3.6,3.6,0,0,0,.54.45c.34.25.46.29.31.11s-.85-.69-.85-.56m38.29.13a.62.62,0,0,1-.08,1c-.16.09-.21.17-.1.17.54,0,.75-1.14.23-1.29-.2-.07-.21,0,0,.14m-47.87.48a1.53,1.53,0,0,0-.2.81c.06.22.08.21.1-.06a1.82,1.82,0,0,1,.28-.72c.15-.2.23-.42.18-.46s-.21.14-.36.43m-2.58-.15a7,7,0,0,0,.26.74l.25.67-.09-.58c-.08-.45-.43-1.16-.42-.83m167.65,1.08,1,1.08s0-.11-.14-.33a5,5,0,0,0-1-1.09l-.77-.66.9,1m-204.23-.5c-.41.32-.26.31.35,0,.26-.14.37-.25.23-.25a1.29,1.29,0,0,0-.58.25M5.4,100.54c0,2.11,0,2.95.06,1.87s0-2.81,0-3.84-.06-.14-.06,2m21.45-3.71.57.46.5.42-.41-.46a1.5,1.5,0,0,0-.57-.46c-.09,0-.13,0-.09,0m75.06.5-.49.55.54-.49c.5-.46.62-.6.49-.6a4.76,4.76,0,0,0-.54.54m-60.66.46c-.14.28-.22.5-.18.5a1.28,1.28,0,0,0,.35-.5c.14-.27.22-.5.17-.5a1.57,1.57,0,0,0-.34.5m24.08,6.41c0,3.8.06,6.94.13,7s.12-3.06.12-6.9,0-7-.12-7-.13,3.11-.13,6.91m28.19-6V99l.16-.65c.1-.43.09-.72,0-.83s-.16.1-.15.66M99.7,98a1.45,1.45,0,0,0-.37.45c0,.06.19-.07.42-.28.39-.37.49-.5.36-.5a2.94,2.94,0,0,0-.41.33m79.71,0a26.09,26.09,0,0,0,0,2.88l0,2.5h10.66l-5.31,0-5.32,0,.09-2.83c.08-2.79.06-3.2-.13-2.46m52.13,7.78c0,4.35,0,7.84.09,7.75s.08-3.64,0-7.9l-.09-7.75,0,7.9M154,98.92c-.41.6-.44.67-.11.29s.82-1.08.71-1.08a4.21,4.21,0,0,0-.6.79M50.58,104.79c0,3.53,0,5,0,3.21s0-4.65,0-6.42,0-.32,0,3.21m41-.41c0,3,.06,5.35.13,5.3s.16-10.24,0-10.5a49.49,49.49,0,0,0-.13,5.2m7.17-4.09c-.54.55-.91,1-.81,1a4.59,4.59,0,0,0,1-1,8.93,8.93,0,0,0,.81-1s-.5.45-1,1M168,100c.15.32.31.55.34.52a2.47,2.47,0,0,0-.54-1.1s.05.26.2.58m-87.6-.11a2.5,2.5,0,0,0,.58,1.2s0-.21-.15-.46-.28-.57-.33-.71-.09-.18-.1,0m72.51.79c-.28.61-.22.74.08.18.14-.26.22-.5.18-.54s-.15.12-.26.36m-111.3,0c-.56,1-.6,1-.32.71l.51-.63c.14-.16.18-.29.09-.29a.41.41,0,0,0-.28.21m11,1.21c0,.82,0,1.18.06.79a9.38,9.38,0,0,0,0-1.5c0-.44-.06-.12-.06.71m165.78-1a3.19,3.19,0,0,0,.67.74c.36.33.63.63.59.68s.22.33.58.66.61.65.56.74,0,.13.08.1.37.18.61.46l.43.5-.34-.5a30,30,0,0,0-3.18-3.38m-141.49,1c-.26.71-.37,1.13-.29,1.13a2.62,2.62,0,0,0,.33-.75c.26-.76.22-1.08,0-.38m18.69.39c-.34.33-.47.52-.29.43.36-.18,1.21-1,1-1a3,3,0,0,0-.74.59M97,102c-.21.23-.36.44-.32.46s.27-.16.52-.41.39-.46.32-.46A1.54,1.54,0,0,0,97,102m125.16,0a2.66,2.66,0,0,0,.45.43c.15,0-.38-.67-.6-.76s-.07.1.15.33m-146.39-.1c-.19.3-.45,1.1-.31.95s.56-1.09.46-1.09-.11.07-.15.14m20,1.3c-.38.42-.39.43,0,.25s.64-.5.52-.62-.26.13-.48.37m-14,.56c.14.37.29.64.33.6a3,3,0,0,0-.51-1.26s0,.3.18.66m-26.42-.37c1.45,0,3.81,0,5.25,0s.27,0-2.62,0-4.07,0-2.63,0m168.46.42a4.31,4.31,0,0,0,.52.55c.37.34.46.38.31.13s-.83-.83-.83-.68m-127.51,1c1.25,1.38,1.26,1.39.93.83a6.71,6.71,0,0,0-1.07-1.17l-.76-.66.9,1m-43.75-.54a18.66,18.66,0,0,0,0,2.29l.05,2.08,0-2.21,0-2.22,5.4,0c3,0,5.36,0,5.32-.08a81.33,81.33,0,0,0-10.82.09m129.73-.09c1.5,0,3.9,0,5.34,0s.21,0-2.72,0-4.11,0-2.62,0m-143.24.25c-.56,1-.6,1-.32.71l.51-.63c.14-.16.18-.29.09-.29a.45.45,0,0,0-.28.21m140.3,2.82a22,22,0,0,0,.1,3.2,13.67,13.67,0,0,0,.08-2.62c-.07-3.91-.15-4.16-.18-.58m26.81-2.53c.32.21.5.21.5,0s-.17-.16-.38-.16-.32,0-.12.16M223,105.92a7.83,7.83,0,0,0,.91,1c.28.17-.78-1.14-1.24-1.53-.21-.19-.07.06.33.54m-98.06.32c.25.6.41.87.41.68a4.55,4.55,0,0,0-.58-1.29s0,.27.17.61m-42,.39a3.49,3.49,0,0,0,.26.66c.11.18.13.12,0-.16a2.83,2.83,0,0,0-.27-.67c-.11-.18-.12-.12,0,.17m45.82.12c.14.3.33.54.43.54s.1-.07,0-.21a6,6,0,0,1-.43-.54c-.22-.28-.21-.25,0,.21M98.32,107c.35.39.68.48.68.17,0,0,0,0-.11,0s-.31-.05-.54-.26l-.43-.38.4.46m-22.07-.09a29.11,29.11,0,0,0,4.81,0,18.66,18.66,0,0,0-3-.1c-1.57,0-2.41.06-1.86.09m19.85.42a3.26,3.26,0,0,0,.71.7l.61.49-.66-.7c-.7-.74-.8-.82-.66-.49m131.07,0a42.07,42.07,0,0,0,3.36,3.58c.08,0-.16-.27-.53-.6a3.64,3.64,0,0,1-.67-.71,12.08,12.08,0,0,0-1.2-1.36c-.66-.69-1.1-1.1-1-.91m-1.69,1.2a7.58,7.58,0,0,0,.79.88c.18,0-.29-.63-.87-1.17l-.63-.58.71.87M126,108.32c.18.19.31.4.27.46s.12.23.35.4.33.21-.14-.46a2.71,2.71,0,0,0-.67-.76c-.08,0,0,.16.19.36m-89.43,0c-.56,1-.6,1.06-.32.71l.51-.62c.14-.16.18-.29.09-.29a.43.43,0,0,0-.28.2m116.13.62a1.63,1.63,0,0,0,.32.6c.08,0,.06-.14,0-.42a1.48,1.48,0,0,0-.32-.59c-.08-.05-.07.13,0,.41m2.4-.12a1.5,1.5,0,0,0,.27.54c.08.09.06-.08,0-.37-.21-.61-.4-.75-.23-.17M34,109a3.62,3.62,0,0,1-.46.61c-.16.16-.2.25-.08.21s1-1.14.8-1.14-.17.14-.26.32m39,.52c-.15.36-.22.66-.16.66a2.59,2.59,0,0,0,.5-1.25s-.19.23-.34.59m25.07,0,1,1,.83.75-.91-1a5.75,5.75,0,0,0-1.06-1c-.08,0,0,.1.09.21m-34.67.63c0,.32,0,.45.08.29a1.47,1.47,0,0,0,0-.59c0-.16-.08,0-.08.3m64.36.36a8.55,8.55,0,0,0,.94.88l.33.15c.14.08-.24-.31-.83-.87-1.33-1.24-1.6-1.34-.44-.16m-34.22-.16c0,.35.07.63.16.63s.2-.46,0-.92c-.12-.27-.15-.21-.16.29m74.41,0c-.14.28-.22.5-.18.5s.2-.22.34-.5.23-.5.18-.5-.2.23-.34.5m-165.54.59c0,.36,0,.49.07.28a1.83,1.83,0,0,0,0-.66c0-.16-.08,0-.07.38M132,110.46a2.73,2.73,0,0,0,1.07.83c.05,0,.1-.08.1-.17s-.07-.14-.15-.09-.34-.09-.58-.32-.44-.34-.44-.25m22.43,1.15a10,10,0,0,0,1,1,14,14,0,0,0-1.83-2c-.09,0,.27.4.8,1m14.18-.07c-.44.51-.72.92-.62.92s.18-.06.18-.13a4.7,4.7,0,0,1,.75-.91c.4-.44.68-.79.62-.79a5.39,5.39,0,0,0-.93.91m41-.17c0,.23,0,.37.06.32a.38.38,0,0,0,.14-.31.37.37,0,0,1,.21-.31c.13,0,.11-.09-.06-.1s-.31.15-.35.4m-157.12.37a1.58,1.58,0,0,0,.12.78c.07,0,.11-.19.07-.53-.09-.92-.17-1-.19-.25m50.82.14a3.76,3.76,0,0,0,.65.58s-.17-.26-.48-.58a3.24,3.24,0,0,0-.65-.59,2.39,2.39,0,0,0,.48.59m99.87-.17a2,2,0,0,0,.13.67c.19.42.19,0,0-.59-.1-.33-.13-.35-.13-.08m-197.53.55a1.87,1.87,0,0,0,.78,1.26c.28.1.28.09,0-.12a2.3,2.3,0,0,1-.53-.79c-.14-.31-.25-.47-.26-.35m28.07.38c-.14.28-.23.55-.19.59s.17-.15.28-.43.29-.46.38-.4.12,0,.06-.08c-.18-.28-.23-.25-.53.32m49.36-.18a5.2,5.2,0,0,1,.13.94c0,.29.08.49.14.45s.15-.64-.13-1.25c-.15-.33-.21-.39-.14-.14m2.32.14c.29.5,1.21,1.32,1.3,1.17a5.5,5.5,0,0,0-.79-.89c-.73-.74-.79-.77-.51-.28m-14,.38a2.07,2.07,0,0,0-.38.65,4.17,4.17,0,0,0,.9-1.24s-.27.23-.52.59m-21.25,0a1.27,1.27,0,0,0-.13.62c.1.1.45-.81.38-1s-.14.1-.25.39m166.87-.19a2,2,0,0,0,.36.67c.18.18.16.09,0-.33-.36-.75-.47-.87-.32-.34m-215.41.54c-.25.34-.29.46-.11.31s.69-.85.56-.85a3.6,3.6,0,0,0-.45.54m137.16-.17c0,.07.27.13.59.13a1.53,1.53,0,0,0,.58-.06,1.36,1.36,0,0,0-.58-.14c-.32,0-.59,0-.59.07m1.84,0-.59.12.63,0c.34,0,.62,0,.62-.14s0-.16,0-.15l-.62.15m68.88.51c-.1.37-.12.62-.05.54s.49-1.22.36-1.22-.21.3-.31.68m-5-.34c.22.14,1.47.23,1.31.1a3.89,3.89,0,0,0-.81-.16c-.48-.06-.66,0-.5.06m2.82,0-.58.12.63,0c.34,0,.62-.06.62-.15s0-.15,0-.14l-.63.14m-145.51.88a1.15,1.15,0,0,0,.7.09c.55-.06.55-.06-.14-.14-.39-.05-.64,0-.56,0m5.1,0-.84.11.78,0a1.6,1.6,0,0,0,.89-.14c.06-.1.08-.16,0-.15s-.43.08-.88.15m28,0-.84.11.75,0a2.41,2.41,0,0,0,1-.13c.14-.09.18-.16.09-.14l-1,.14m104.73,0a1.17,1.17,0,0,0,.7.09c.55-.06.55-.06-.14-.14-.38-.05-.64,0-.56,0m14.17,0a1.52,1.52,0,0,0,.78.08l.65-.06-.78-.08c-.43,0-.73,0-.65.06m-195.61.06a1.42,1.42,0,0,0,.58,0c.16,0,0-.08-.29-.08s-.45,0-.29.08m4.33,0a3,3,0,0,0,.84,0c.2,0,0-.07-.46-.07s-.63,0-.38.07m14.92,0a2.36,2.36,0,0,0,.75,0c.21,0,0-.07-.38-.07s-.58,0-.37.07m11.83,0a1.88,1.88,0,0,0,.67,0c.16,0,0-.07-.38-.07s-.49,0-.29.07m4.33,0a2.36,2.36,0,0,0,.75,0c.21,0,0-.07-.37-.07s-.58,0-.38.07m16.26,0a2.88,2.88,0,0,0,.83,0c.21,0,0-.07-.46-.07s-.63,0-.37.07m16.41,0a6.49,6.49,0,0,0,1.08,0c.3,0,.06-.07-.54-.07s-.84,0-.54.07m4.08,0a1.47,1.47,0,0,0,.59,0c.16,0,0-.08-.29-.08s-.45,0-.3.08m15.34,0a8.69,8.69,0,0,0,1.25,0c.34,0,.06-.07-.63-.07s-1,0-.62.07m70.5,0a1.42,1.42,0,0,0,.58,0c.16,0,0-.08-.29-.08s-.45,0-.29.08m4.33,0a3,3,0,0,0,.84,0c.2,0,0-.07-.46-.07s-.63,0-.38.07m8.59,0a1.83,1.83,0,0,0,.66,0c.16,0,0-.07-.37-.07s-.5,0-.29.07m4.25,0a2.88,2.88,0,0,0,.83,0c.21,0,0-.07-.46-.07s-.63,0-.37.07m24.75,0a2.36,2.36,0,0,0,.75,0c.2,0,0-.07-.38-.07s-.58,0-.37.07m-81.3.28s.23.1.5.14.5,0,.5-.06-.22-.14-.5-.14a1.17,1.17,0,0,0-.5.06m5.75.1c-.06.11.11.13.45.06.74-.14.8-.22.17-.22a.94.94,0,0,0-.62.16m-1.29.12a1.88,1.88,0,0,0,.67,0c.16,0,0-.07-.38-.07s-.49,0-.29.07M54.74,131l-.49.54.54-.49c.51-.45.62-.59.49-.59a4,4,0,0,0-.54.54m1.5.05c-.32.26-.32.26,0,.11s.45-.2.58-.25.22-.09,0-.11a1.19,1.19,0,0,0-.58.25m2.43-.09c.57.18,1,.18.58,0a2,2,0,0,0-.67-.14c-.26,0-.25,0,.09.14m90.44,1.8c-.36.4-.35.77,0,1.05s.27.18.09,0a.69.69,0,0,1,.07-1c.15-.16.23-.3.19-.3a1.15,1.15,0,0,0-.36.3m-8.19.7c-.06.09,0,.12.13.07s.22.05.18.46l0,.55.13-.5c.17-.67-.09-1.07-.39-.58m-.74,2a2.32,2.32,0,0,1-.41.87c-.13.09-.11.11,0,.07a2.32,2.32,0,0,0,.63-1.52c0-.09-.15.17-.27.58m-79.51.74c.62.13,1.47.16,1.39,0a1.61,1.61,0,0,0-.86-.12c-.43,0-.67.05-.53.08m14.29,0a2.36,2.36,0,0,0,.75,0c.21,0,0-.07-.38-.07s-.58,0-.37.07m4.26,0c-.1.07.28.13.86.13s1-.06,1-.13a3.57,3.57,0,0,0-1.84,0m18.73,0a7.61,7.61,0,0,0,1.17,0c.35,0,.1-.07-.54-.07s-.92,0-.63.07m7.51,0a2.36,2.36,0,0,0,.75,0c.21,0,0-.07-.38-.07s-.58,0-.37.07m4.23,0c-.15.09.06.11.53.06,1.07-.12,1.56,0,1.75.58.11.29.18.35.18.16,0-.75-1.66-1.31-2.46-.8m8.94,0a4.74,4.74,0,0,0,1,0c.25,0,0-.06-.55-.06s-.75,0-.45.07m30.45,0a1.49,1.49,0,0,1,.81.27c.09.14.11.12.07,0s-.3-.26-.81-.27c-.73,0-.73,0-.07.05m9.63,0a2.88,2.88,0,0,0,.83,0c.21,0,0-.07-.46-.07s-.62,0-.37.07m8.67,0a2.88,2.88,0,0,0,.83,0c.21,0,0-.07-.46-.07s-.63,0-.37.07m16.58,0a1.88,1.88,0,0,0,.67,0c.16,0,0-.07-.38-.07s-.5,0-.29.07m-53.09.17a1.47,1.47,0,0,0,.59,0c.16,0,0-.08-.29-.08s-.45,0-.3.08m-27.52.25a.59.59,0,0,0,.36.47c.32.15.33.15.11,0a1.35,1.35,0,0,1-.36-.46c-.08-.21-.1-.2-.11,0m43.16.07a.42.42,0,0,0,.36.45c.32.08.34.07.12-.1a1.39,1.39,0,0,1-.37-.45c-.06-.18-.1-.15-.11.1m-73.76.06c-.14.22,0,.4.23.31s.12-.15,0-.28-.18-.18-.27,0m5.16.38-.49.54.54-.49a4,4,0,0,0,.54-.54c0-.13-.14,0-.59.49m83.59-.33a3.73,3.73,0,0,0,.54.55l.54.49-.49-.55c-.45-.5-.59-.61-.59-.49M98,137.08a3,3,0,0,0,.84,0c.2,0,0-.08-.46-.07s-.63,0-.38.07m17,.52a10.08,10.08,0,0,0-.72.93c-.12.19,0,.09.28-.23a7.43,7.43,0,0,1,.94-.93c.24-.2.34-.35.22-.35a1.81,1.81,0,0,0-.72.58m4-.47a10.41,10.41,0,0,1,1.17.23c.18.06.11,0-.17-.14a2.86,2.86,0,0,0-1.16-.23c-.66,0-.65,0,.16.14m8.17.26-.5.43.54-.36a2.25,2.25,0,0,0,.54-.43c0-.12-.07-.08-.58.36m53.3,0c-.2.21-.31.38-.24.38s.77-.65.67-.72-.23.13-.43.34m-83.76-.17c-.16,0-.29.15-.29.24s.16.07.37,0c.63-.32.61-.38-.08-.2m32.82,0c0,.07.36.13.89.13s.93-.06.89-.13a3.36,3.36,0,0,0-1.78,0m28,0c-.15,0-.29.15-.29.24s.16.07.38,0c.62-.32.6-.38-.09-.2m14.8.14c-.42.2-.44.23-.09.14a1.59,1.59,0,0,0,.58-.25c.22-.2.1-.17-.49.11m-111.84,0a1,1,0,0,1,.48.28q.13.18.06-.06c0-.14-.24-.27-.47-.29s-.33,0-.07.07m14.17.05c.46.2.62.2.5,0a.64.64,0,0,0-.47-.16c-.35,0-.35,0,0,.16m19.73.15c-.22.18-.35.36-.3.42s.27-.09.49-.32c.46-.5.36-.55-.19-.1m37.19-.28a3.07,3.07,0,0,0,.66.27c.32.11.51.13.42,0a1.88,1.88,0,0,0-.67-.28c-.27-.06-.46-.08-.41,0m16.8.07c.29.06.37.17.31.41s0,.32.08.32c.39,0,0-.76-.36-.78s-.4,0,0,.05m33.34.24-.39.34.5-.29c.65-.39.66-.4.46-.4a1.45,1.45,0,0,0-.57.35m-20.81.05c0,.18.5.66.59.57s-.07-.22-.26-.38-.33-.25-.33-.19m-108.19.57c-.05.33,0,.48.07.39a.79.79,0,0,0,.09-.55c-.06-.33-.08-.31-.16.16m42.31.18a5.54,5.54,0,0,0-.78,1.05c-.17.36-.17.36.11,0,.17-.23.55-.7.86-1a2.49,2.49,0,0,0,.48-.63,4,4,0,0,0-.67.65m75.78.06c-.61.64-1.37,1.61-1,1.21a23.67,23.67,0,0,0,1.7-1.92,5.72,5.72,0,0,0-.74.71m-43.41-.1-.41.45.46-.32a1.44,1.44,0,0,0,.46-.45c0-.2-.09-.14-.51.32m35.21,0c.29.69.51.88.29.25a1.7,1.7,0,0,0-.34-.63c-.08-.05-.06.12,0,.38m-41.59.33A3.39,3.39,0,0,1,121,140c-.17.5-.16.52.07.23a2.28,2.28,0,0,0,.07-1.84c-.1-.23-.11-.12,0,.36m48.45.1c-.42.64-.65,1.07-.51.95a6.11,6.11,0,0,0,.91-1.42s-.21.18-.4.47m-47.35.29c0,.41,0,.58.07.37a2.36,2.36,0,0,0,0-.75c0-.21-.07,0-.07.38m-69.58.33c0,.27,0,.5.07.5s.13-.23.13-.5,0-.5-.06-.5-.1.22-.14.5m128.15-.39c-.15.15-.14.89,0,.89s.13-.23.15-.5c0-.54,0-.56-.16-.39m-104,.9c-.14.29-.24.55-.2.59s.19-.2.34-.52c.35-.72.23-.77-.14-.07m77.1,0c-.1.2-.12.35,0,.35s.41-.5.29-.62-.16.08-.26.27m-46.65.28c-.27.61-.22.74.08.18.14-.26.23-.5.19-.54s-.16.12-.27.36m18.92.23c-.38.94-.32,1.08.07.19a2.11,2.11,0,0,0,.26-.8s-.19.24-.33.61m43,.5a2.14,2.14,0,0,0-.29.62c0,.08.16-.11.35-.42a1.76,1.76,0,0,0,.28-.62s-.19.15-.34.42m-107.39-.08a1.2,1.2,0,0,0,0,.54c0,.19.1.1.16-.24.09-.57,0-.71-.13-.3m58.62.32-.4.52.47-.45c.27-.25.45-.49.41-.52s-.26.16-.48.45m59.94.08c.38.37.64.47.46.19a1.38,1.38,0,0,0-.47-.35l-.36-.19.37.35m-59.14.47a4,4,0,0,1-.73.58c-.28.17-.41.3-.29.3s1.55-1.15,1.35-1.16-.21.12-.33.28m-53.28.59c-.17.49-.17.51,0,.22s.34-.76.2-.76a2.07,2.07,0,0,0-.25.54m1.13-.12a.83.83,0,0,0,.06.42s.1-.19.15-.42,0-.42-.07-.42-.14.19-.14.42m-7.5.17c0,.22,0,.41.06.41s.1-.19.15-.41,0-.42-.07-.42-.14.19-.14.42m114.07-.18a1.25,1.25,0,0,0,0,.62c0,.29.08.22.14-.24.09-.64,0-.8-.11-.38m-43.12.71a2.65,2.65,0,0,0-.23.83s.2-.28.36-.7a2.27,2.27,0,0,0,.22-.84,2,2,0,0,0-.35.71m51.55-.64c0,.14.84.57.93.48s-.17-.17-.44-.33-.49-.22-.49-.15m-122.6,1.1a1.07,1.07,0,0,0,0,.54c0,.19.1.1.15-.24.09-.57,0-.71-.12-.3m14,.18a1,1,0,0,0,0,.52s.12-.13.18-.37a1,1,0,0,0,0-.52s-.12.13-.18.37m16.78.33c0,.36,0,.49.07.28a1.63,1.63,0,0,0,0-.66c0-.16-.07,0-.07.38m75.79-.25a.83.83,0,0,0-.13.51c0,.09.14-.06.24-.34.22-.58.16-.67-.11-.17m18.19,0a4.33,4.33,0,0,1,.72.95,1.39,1.39,0,0,0,.36.53c.21,0-.76-1.43-1.13-1.66s-.35-.2.05.18M60.3,144c0,.27,0,.5.06.5s.14-.23.14-.5a1.13,1.13,0,0,0-.06-.5s-.1.22-.14.5m32.81-.39a5.83,5.83,0,0,0,0,2.28c.07,0,.13-.48.13-1.16s0-1.23,0-1.23l-.13.11m82.29.13a1.38,1.38,0,0,0,0,.62c0,.29.08.22.15-.24.08-.64,0-.8-.12-.38m-69.46,0a1,1,0,0,0-.09.54c0,.42,0,.42.16-.06s.13-.68-.07-.48m48.17.16a3.57,3.57,0,0,0,0,1.78c.07,0,.13-.36.13-.9s0-1,0-1l-.13.11m20.2.69c-.05.33,0,.49.07.39a.78.78,0,0,0,.09-.54c-.06-.34-.08-.31-.16.15m-11.59.38c-.1.38-.13.62-.06.54s.5-1.22.37-1.22-.21.31-.31.68M148.9,145a1.08,1.08,0,0,0,0,.54c0,.19.1.1.15-.24.09-.56,0-.71-.12-.3m12.62.28a1.29,1.29,0,0,0-.12.6s.15-.18.25-.47a1.28,1.28,0,0,0,.12-.6s-.15.18-.25.47m-87.39.15c0,.27,0,.5.07.5s.13-.23.13-.5,0-.5-.06-.5-.1.22-.14.5m57,.37-.27.55.34-.42c.33-.4.44-.67.27-.67a1.72,1.72,0,0,0-.34.54m43.07.09c-.06.33,0,.49.06.4a.81.81,0,0,0,.09-.55c-.05-.33-.08-.31-.15.15m-35.46.07a3.16,3.16,0,0,1-.13.75c-.08.23-.06.26.1.11a1,1,0,0,0,.13-.75c-.06-.45-.07-.47-.1-.11m40.6.5c-.15.47-.21.79-.14.7a3.63,3.63,0,0,0,.48-1.49s-.19.32-.34.79m-114,.6c-.49.57-.6.75-.28.45.5-.45,1.29-1.42,1.16-1.41a9.9,9.9,0,0,0-.88,1m-12.59-.21c0,.22,0,.41.06.41s.1-.19.14-.41,0-.42-.06-.42-.14.19-.14.42m13.54.24c-.58.69-.64.84-.38.84.09,0,.17-.1.17-.23a.73.73,0,0,1,.26-.45c.24-.19.65-.83.54-.82a5.8,5.8,0,0,0-.59.66m81.42,0c0,.27,0,.5.07.5s.13-.23.13-.5,0-.5-.06-.5-.1.22-.14.5m-43.15.13c0,.33,0,.48.06.39a.7.7,0,0,0,.09-.55c0-.33-.07-.31-.15.16m34,0c0,.37.33.61.33.25,0-.21-.07-.37-.16-.37s-.17.05-.17.12m-45,.09a3.73,3.73,0,0,0,.54.55l.54.49-.49-.55c-.45-.5-.59-.61-.59-.49m67.5.7c-.31.32-.49.58-.41.57s1.18-1.15,1-1.15a4.62,4.62,0,0,0-.63.58m-90.34-.27c.21.15.19.24-.16.63l-.42.46.42-.26c.46-.29.56-.83.17-.93-.22-.06-.22,0,0,.1m42.67,0c0,.27.83,1.22,1.06,1.21s.06-.08-.11-.18a2.19,2.19,0,0,1-.62-.7c-.18-.29-.33-.44-.33-.33m11.34,0a1.67,1.67,0,0,0,.45.67c.26.26.34.32.19.13a7.86,7.86,0,0,1-.45-.67c-.1-.19-.19-.25-.19-.13m-63.34.37c0,.44,1.5.92,1.73.54,0-.07-.17-.1-.47-.07a1,1,0,0,1-.91-.28c-.19-.19-.35-.28-.35-.19m3.34.51c-.42.27-.7.49-.62.49a6.22,6.22,0,0,0,1.45-.93c0-.11-.06-.08-.83.44m35.2,0c-.29.15-.54.32-.54.39s1-.32,1.09-.53.08-.15,0-.14l-.6.28m41-.09c0,.07.23.13.5.13s.5-.06.5-.13-.22-.12-.5-.12-.5.05-.5.12m9.42.23c-.3.25-.36.36-.15.25s.88-.7.71-.68a4.8,4.8,0,0,0-.56.43m-54.58-.06c0,.07.29.12.65.12a1.41,1.41,0,0,0,.74-.12c0-.07-.25-.13-.66-.13s-.73.06-.73.13m20.66,0c0,.07.3.12.66.12a1.39,1.39,0,0,0,.73-.12c0-.07-.25-.13-.65-.13s-.74.06-.74.13m4,0c-.22.13-.34.24-.25.24a1.92,1.92,0,0,0,.59-.24c.23-.13.34-.24.25-.24a1.92,1.92,0,0,0-.59.24m61.71-.14a1.18,1.18,0,0,0,.59,0c.16,0,0-.07-.3-.07s-.45,0-.29.07M50.09,153.08c-.36.46-.38.54-.11.3s.78-.92.65-.92a5.53,5.53,0,0,0-.54.62m.4,1-.57.63.62-.58c.58-.53.7-.67.58-.67a5.75,5.75,0,0,0-.63.62m-4.4.37c-.12.2.14.35.85.51.32.08.52.07.47,0a.56.56,0,0,0-.41-.15c-.46,0-.84-.18-.74-.35s.06-.15,0-.15-.13.07-.18.16m-.57,5a.93.93,0,0,0-.05,1.23c.39.46,142,.45,142.42,0a.72.72,0,0,0,0-1.1c-.3-.29-141.92-.4-142.39-.11m88.44,6.7c0,.07-.3.16-.62.21-.58.09-2.23,1.54-2.06,1.82,0,.07,0,.12-.07.12s-.15.17-.17.37-.08.4-.16.42a4,4,0,0,0-.08,1.34c.08,1.8.09,1.87.24,1.87s.13.1.13.21a3.51,3.51,0,0,0,1.17,1.59.88.88,0,0,1,.41.25c.39.46,2.5.59,3.48.22,2.81-1.08,3.48-5.3,1.17-7.43a2.78,2.78,0,0,0-1-.67c-.14,0-.25-.07-.25-.15s-.15-.11-.34-.07-.33,0-.33-.07-1.47-.22-1.54,0m-38.5.11-.79.06v8.32h.83V171c0-3.35.14-4.3.4-2.8a11.72,11.72,0,0,0,.51,1.56,3.83,3.83,0,0,1,.34,1.2.12.12,0,0,0,.07.18c.09,0,.2.26.24.51.57,3.16,2.08,3.93,2.55,1.3a.72.72,0,0,1,.23-.47.12.12,0,0,0,.08-.19,4.21,4.21,0,0,1,.42-1.35,15,15,0,0,0,.58-1.66c.42-2.38.66-1.76.71,1.79l0,3.55h.83v-8.34h-.75c-.48,0-.75.08-.76.21a8.34,8.34,0,0,1-.73,2.37c-.33.85-.64,1.72-.68,1.92-.13.68-.27,1-.43,1s-.13.07-.07.16-.41,1.53-.59,1.42a.51.51,0,0,1-.13-.37,10.45,10.45,0,0,0-.59-1.92c-.33-.89-.6-1.66-.6-1.71a.37.37,0,0,0,0-.12s0-.15-.06-.29-.26-.76-.49-1.39a3.44,3.44,0,0,1-.34-1.29c0-.08.07-.14,0-.12l-.84.09m9.28,4.21,0,4.17h1.11v-8.34h-1.08v4.17m3.09,0v4.17H113v-1h-4v-7.34h-1.17v4.17m8.64-3.39a4.61,4.61,0,0,0-.36,1c0,.12-.06.21-.15.21s-.11.06-.07.13a3.83,3.83,0,0,1-.4,1.28c-.26.63-.6,1.5-.75,2s-.34.81-.43.81-.12.07-.07.15a2.38,2.38,0,0,1-.31,1.09l-.41.93h.62c.52,0,.63-.07.65-.36a.72.72,0,0,1,.24-.5c.12-.08.17-.14.11-.14s0-.34.14-.75l.25-.75h3.76l.2.47a3.69,3.69,0,0,1,.23.71c.13.85.5,1.32,1,1.32h.55l-.17-.63a8.68,8.68,0,0,0-.5-1.26c-.17-.34-.27-.71-.2-.81s0-.14-.06-.08-.36-.35-.45-.89c0-.05-.21-.53-.46-1.08a11.66,11.66,0,0,1-.5-1.25.83.83,0,0,0-.15-.34,5.16,5.16,0,0,1-.41-1c-.48-1.35-1.39-1.45-1.94-.22m5.86,3.39v4.17h1.18v-3.21c0-1.77,0-3.29,0-3.38s.21.17.46.59a2.79,2.79,0,0,1,.41.87.1.1,0,0,0,.11.13,19.39,19.39,0,0,1,1.8,2.49c1.55,2.36,1.67,2.5,2.18,2.5H129v-8.34h-.83v3.27c0,3.29-.1,3.74-.59,2.8-.09-.17-.65-1-1.25-1.89-1.06-1.55-1.24-1.82-2.25-3.39-.44-.7-.56-.78-1.12-.78h-.63v4.17m13.78-3.16c1.12.55,1.47,1.26,1.5,3.12a3.55,3.55,0,0,1-.13,1.54c-.09,0-.12.07-.06.16.32.53-1.34,1.72-2.47,1.76-.62,0-1.12,0-1.12-.12s-.07-.11-.16,0-.17,0-.17-.08-.06-.15-.14-.1c-.54.33-1.53-1.67-1.53-3.08,0-2.7,2.06-4.22,4.28-3.15m-18.3.87a10,10,0,0,1,.41,1.33c0,.16.07.29.13.29s.15.21.2.46a6.26,6.26,0,0,0,.19.71c.08.21-.13.25-1.32.25-1.37,0-1.41,0-1.34-.38.12-.68.27-1,.44-1s.12-.07.07-.15a2,2,0,0,1,.25-.94,5.56,5.56,0,0,0,.37-1.18c.05-.62.18-.48.6.65"/><path id="path4" class="cls-5" d="M93.29.08a1.86,1.86,0,0,0,.67,0c.16,0,0-.07-.38-.07s-.49,0-.29.08M130,1.25a7.61,7.61,0,0,0,1.17,0c.35,0,.1-.07-.54-.07s-.92,0-.63.07m16.26,0a2.88,2.88,0,0,0,.83,0c.21,0,0-.07-.46-.07s-.62,0-.37.07m20,0a1.42,1.42,0,0,0,.58,0c.16,0,0-.08-.29-.08s-.45,0-.29.08m13.42,0a2.36,2.36,0,0,0,.75,0c.2,0,0-.07-.38-.07s-.58,0-.37.07M107,25.91a1.88,1.88,0,0,0,.67,0c.16-.05,0-.08-.38-.08s-.5,0-.29.08m15.33,0a1.88,1.88,0,0,0,.67,0c.16-.05,0-.08-.38-.08s-.49,0-.29.08m70.15,71.64a1.48,1.48,0,0,0-.09.55c0,.15.08.05.16-.22.16-.52.1-.78-.07-.33m-129,2.74c0,1.61,0,2.26.06,1.46s0-2.11,0-2.92-.06-.14-.06,1.46m30.32.17c0,.59,0,.84.07.54a4.87,4.87,0,0,0,0-1.08c0-.3-.07-.06-.07.54m85.84,1.25c0,.82,0,1.18.06.8a9.39,9.39,0,0,0,0-1.5c0-.44-.06-.13-.06.7m0,4.75c0,1.14,0,1.61.05,1a18,18,0,0,0,0-2.08c0-.58-.05-.11-.05,1m-116.18-.67c0,.69,0,1,.06.63a6.53,6.53,0,0,0,0-1.25c0-.35-.06-.07-.06.62m-61,.09c0,.36,0,.49.07.28a1.83,1.83,0,0,0,0-.66c0-.16-.08,0-.07.38m91.34,2.66c0,.46,0,.63.07.37a2.87,2.87,0,0,0,0-.83c0-.2-.07,0-.06.46m98.67,1.68a1,1,0,0,0,.06.62c.14.3.16.27.15-.26s-.06-.75-.21-.36m-51.24,26.12a7.43,7.43,0,0,0,1.87.08l1.73,0-1.87-.08a5.54,5.54,0,0,0-1.73.05m-9.24,12a.31.31,0,0,0,.07.36c.14.14.19.09.19-.18s-.09-.46-.26-.18M129,170.58a28.07,28.07,0,0,0,.05,4.07,41.25,41.25,0,0,0,.08-4.2l0-4.07-.08,4.2m-6.46,4.16a1.42,1.42,0,0,0,.58,0c.17,0,0-.08-.29-.08s-.45,0-.29.08"/></g></g></g></svg>